if (_typeface_js && _typeface_js.loadFace) _typeface_js.loadFace({"glyphs":{"S":{"x_min":65.109375,"x_max":1037,"ha":1081,"o":"m 1037 286 q 1023 192 1037 233 q 988 118 1010 150 q 937 64 967 86 q 877 27 908 42 q 814 6 846 13 q 753 0 781 0 l 73 0 l 73 176 l 753 176 q 832 206 804 176 q 860 286 860 236 q 853 330 860 310 q 831 366 845 351 q 797 389 817 381 q 753 397 777 397 l 347 397 q 255 412 305 397 q 163 461 206 427 q 93 550 121 495 q 65 685 65 605 q 93 818 65 764 q 163 907 121 873 q 255 957 206 942 q 347 972 305 972 l 948 972 l 948 796 l 347 796 q 269 765 297 796 q 241 685 241 735 q 269 604 241 634 q 347 575 297 575 l 753 575 l 754 575 q 815 567 783 574 q 878 545 847 560 q 938 507 910 530 q 989 453 967 484 q 1024 379 1011 421 q 1037 286 1037 338 "},"¦":{"x_min":94.265625,"x_max":270.609375,"ha":364,"o":"m 270 556 l 94 556 l 94 1131 l 270 1131 l 270 556 m 270 -160 l 94 -160 l 94 415 l 270 415 l 270 -160 "},"/":{"x_min":57.65625,"x_max":860.671875,"ha":916,"o":"m 860 972 l 246 0 l 57 0 l 672 972 l 860 972 "},"y":{"x_min":78.671875,"x_max":891.1875,"ha":977,"o":"m 891 -70 q 879 -152 891 -115 q 849 -216 868 -188 q 805 -262 830 -243 q 752 -294 779 -282 q 697 -312 725 -306 q 644 -318 669 -318 l 326 -318 l 326 -141 l 644 -141 q 697 -123 679 -141 q 714 -70 714 -105 l 714 733 l 891 733 l 891 -70 m 644 0 l 326 0 q 245 12 288 0 q 164 55 202 25 q 103 131 127 84 q 78 247 78 179 l 78 733 l 255 733 l 255 247 q 273 194 255 212 q 327 176 291 176 l 644 176 l 644 0 "},"≈":{"x_min":96.984375,"x_max":828.78125,"ha":930,"o":"m 828 550 q 794 523 814 535 q 751 502 775 511 q 701 487 727 493 q 648 482 675 482 q 558 493 606 482 q 461 518 510 505 q 362 543 411 532 q 270 555 314 555 q 221 548 246 555 q 173 531 196 541 q 129 506 149 520 q 96 479 109 493 l 96 657 q 132 684 111 671 q 177 706 153 697 q 227 720 202 715 q 276 726 252 726 q 365 714 317 726 q 464 689 414 703 q 562 663 514 674 q 655 651 611 651 q 703 658 678 651 q 751 676 728 665 q 795 701 775 687 q 828 729 815 714 l 828 550 m 828 271 q 794 245 814 257 q 751 224 775 233 q 701 209 727 215 q 648 204 675 204 q 558 215 606 204 q 461 241 510 227 q 362 266 411 255 q 270 278 314 278 q 221 271 246 278 q 173 253 196 264 q 129 228 149 242 q 96 201 109 215 l 96 379 q 132 406 111 393 q 177 428 153 419 q 227 443 202 438 q 276 448 252 448 q 365 437 317 448 q 464 411 414 425 q 562 385 514 397 q 655 373 611 373 q 703 380 678 373 q 751 398 728 387 q 795 423 775 409 q 828 451 815 437 l 828 271 "},"Á":{"x_min":84.09375,"x_max":1056.671875,"ha":1159,"o":"m 1056 0 l 880 0 l 880 238 l 260 238 l 260 0 l 84 0 l 84 486 q 120 682 84 592 q 222 836 157 771 q 376 936 287 900 q 570 972 465 972 l 967 972 q 1002 965 986 972 q 1030 946 1018 959 q 1049 918 1043 934 q 1056 883 1056 902 l 1056 0 m 260 415 l 880 415 l 880 796 l 570 796 q 536 793 562 796 q 475 781 510 791 q 403 752 441 772 q 333 698 365 733 q 281 612 301 663 q 260 486 260 560 l 260 415 m 957 1190 l 603 1064 l 557 1165 l 883 1355 l 957 1190 "},"g":{"x_min":67.828125,"x_max":880.328125,"ha":959,"o":"m 880 -70 q 868 -152 880 -115 q 838 -216 857 -188 q 794 -262 819 -243 q 741 -294 769 -282 q 686 -312 714 -306 q 632 -318 657 -318 l 314 -318 l 314 -141 l 632 -141 q 686 -123 668 -141 q 704 -70 704 -105 l 704 486 q 686 538 704 520 q 632 556 668 556 l 314 556 q 263 536 282 556 q 244 486 244 516 l 244 247 q 262 194 244 212 q 316 176 280 176 l 632 176 l 632 0 l 314 0 q 261 5 289 0 q 206 23 233 11 q 153 55 179 35 q 109 102 128 74 q 79 165 90 129 q 67 247 67 202 l 67 486 q 73 539 67 511 q 91 594 79 567 q 123 647 103 621 q 169 691 142 672 q 233 721 197 710 q 314 733 269 733 l 632 733 q 686 727 657 733 q 741 709 714 721 q 794 677 769 697 q 838 631 819 658 q 868 567 857 603 q 880 486 880 531 l 880 -70 "},"²":{"x_min":73.25,"x_max":486.96875,"ha":563,"o":"m 486 421 l 73 421 l 73 579 q 81 624 73 602 q 105 665 89 647 q 145 694 121 682 q 199 705 168 705 l 363 705 l 363 743 l 105 743 l 105 866 l 360 866 q 415 855 391 866 q 454 826 438 844 q 478 786 470 808 q 486 740 486 763 l 486 708 q 475 654 486 677 q 446 614 464 630 q 406 590 428 598 q 360 581 383 581 l 196 581 l 196 544 l 486 544 l 486 421 "},"–":{"x_min":78.671875,"x_max":634.140625,"ha":713,"o":"m 634 406 l 78 406 l 78 565 l 634 565 l 634 406 "},"ë":{"x_min":67.828125,"x_max":871.515625,"ha":907,"o":"m 871 490 q 858 411 871 453 q 816 332 845 368 q 741 271 788 296 q 628 247 695 247 l 310 247 l 310 415 l 628 415 q 684 437 664 415 q 704 491 704 459 q 681 545 704 526 q 628 565 659 565 l 310 565 q 255 543 274 565 q 235 489 235 521 l 235 242 q 257 187 235 207 q 311 168 279 168 l 628 168 l 628 0 l 310 0 q 231 12 274 0 q 152 54 189 25 q 92 129 116 83 q 67 242 67 176 l 67 490 q 80 569 67 526 q 122 648 93 611 q 197 708 151 684 q 310 733 244 733 l 628 733 q 707 720 665 733 q 786 678 750 707 q 847 603 822 649 q 871 490 871 556 m 399 932 q 392 898 399 914 q 373 870 385 882 q 345 852 361 858 q 311 845 329 845 q 277 852 293 845 q 249 870 261 858 q 231 898 237 882 q 224 932 224 914 q 231 966 224 950 q 249 994 237 982 q 277 1013 261 1006 q 311 1020 293 1020 q 345 1013 329 1020 q 373 994 361 1006 q 392 966 385 982 q 399 932 399 950 m 713 932 q 706 898 713 914 q 687 870 699 882 q 659 852 675 858 q 625 845 643 845 q 591 852 607 845 q 563 870 575 858 q 545 898 552 882 q 538 932 538 914 q 545 966 538 950 q 563 994 552 982 q 591 1013 575 1006 q 625 1020 607 1020 q 659 1013 643 1020 q 687 994 675 1006 q 706 966 699 982 q 713 932 713 950 "},"Î":{"x_min":-124.828125,"x_max":511.359375,"ha":384,"o":"m 280 0 l 103 0 l 103 972 l 280 972 l 280 0 m 429 1064 l 193 1186 l -42 1064 l -124 1178 l 193 1358 l 511 1178 l 429 1064 "},"e":{"x_min":67.828125,"x_max":871.515625,"ha":907,"o":"m 871 490 q 858 411 871 453 q 816 332 845 368 q 741 271 788 296 q 628 247 695 247 l 310 247 l 310 415 l 628 415 q 684 437 664 415 q 704 491 704 459 q 681 545 704 526 q 628 565 659 565 l 310 565 q 255 543 274 565 q 235 489 235 521 l 235 242 q 257 187 235 207 q 311 168 279 168 l 628 168 l 628 0 l 310 0 q 231 12 274 0 q 152 54 189 25 q 92 129 116 83 q 67 242 67 176 l 67 490 q 80 569 67 526 q 122 648 93 611 q 197 708 151 684 q 310 733 244 733 l 628 733 q 707 720 665 733 q 786 678 750 707 q 847 603 822 649 q 871 490 871 556 "},"Ã":{"x_min":84.09375,"x_max":1056.671875,"ha":1159,"o":"m 1056 0 l 880 0 l 880 238 l 260 238 l 260 0 l 84 0 l 84 486 q 120 682 84 592 q 222 836 157 771 q 376 936 287 900 q 570 972 465 972 l 967 972 q 1002 965 986 972 q 1030 946 1018 959 q 1049 918 1043 934 q 1056 883 1056 902 l 1056 0 m 260 415 l 880 415 l 880 796 l 570 796 q 536 793 562 796 q 475 781 510 791 q 403 752 441 772 q 333 698 365 733 q 281 612 301 663 q 260 486 260 560 l 260 415 m 836 1302 q 823 1192 836 1237 q 786 1120 809 1148 q 732 1081 763 1093 q 667 1069 701 1069 q 605 1082 630 1069 q 560 1110 580 1095 q 523 1138 541 1125 q 484 1151 505 1151 q 451 1141 463 1151 q 433 1117 440 1131 q 425 1089 427 1103 q 423 1069 423 1076 l 303 1069 q 316 1170 303 1127 q 354 1244 330 1214 q 408 1288 377 1273 q 473 1302 439 1302 q 529 1289 505 1302 q 572 1261 552 1277 q 612 1233 593 1246 q 656 1221 631 1221 q 688 1231 676 1221 q 706 1254 700 1241 q 714 1281 712 1268 q 717 1302 716 1295 l 836 1302 "},"J":{"x_min":27.125,"x_max":920.34375,"ha":1020,"o":"m 920 247 q 902 149 920 194 q 850 70 883 103 q 772 18 817 37 q 673 0 727 0 l 27 0 l 27 176 l 673 176 q 724 194 706 176 q 742 247 742 213 l 742 972 l 920 972 l 920 247 "},"»":{"x_min":60.359375,"x_max":923.0625,"ha":967,"o":"m 647 645 l 896 422 q 916 395 909 411 q 923 362 923 379 q 895 302 923 326 l 651 88 l 423 88 l 737 362 l 421 645 l 647 645 m 285 645 l 535 422 q 555 395 548 411 q 562 362 562 379 q 534 302 562 326 l 289 88 l 61 88 l 375 362 l 60 645 l 285 645 "},"©":{"x_min":84.09375,"x_max":889.828125,"ha":974,"o":"m 889 422 q 874 315 889 361 q 833 234 859 268 q 776 177 808 200 q 709 140 744 154 q 642 121 675 126 q 582 115 609 115 l 391 115 q 331 121 364 115 q 264 140 299 126 q 198 177 230 154 q 140 234 165 200 q 99 315 114 268 q 84 422 84 361 l 84 550 q 99 656 84 610 q 140 737 114 703 q 198 794 165 771 q 264 831 230 817 q 331 851 299 845 q 391 857 364 857 l 582 857 q 642 851 609 857 q 709 831 675 845 q 776 794 744 817 q 834 737 809 771 q 874 656 859 703 q 889 550 889 610 l 889 422 m 784 422 l 784 550 q 685 725 784 675 q 648 739 666 734 q 615 747 630 744 q 582 751 597 750 l 391 751 q 369 750 386 751 q 330 742 352 748 q 283 724 307 736 q 237 689 258 711 q 203 632 217 666 q 189 550 189 598 l 189 422 q 203 339 189 373 q 237 283 217 305 q 283 248 258 261 q 330 229 307 236 q 370 222 353 223 q 392 221 387 221 l 582 221 q 604 222 588 221 q 644 230 621 223 q 691 249 666 236 q 736 284 715 261 q 770 340 756 306 q 784 422 784 374 m 653 278 l 399 278 q 362 284 382 278 q 324 304 341 290 q 294 340 306 318 q 282 394 282 362 l 282 584 q 288 622 282 601 q 308 660 295 642 q 344 689 322 677 q 399 701 366 701 l 653 701 l 653 596 l 399 596 q 396 595 397 596 q 393 595 394 595 q 391 594 392 594 q 389 589 389 593 q 388 584 388 585 l 388 394 q 389 388 388 389 q 389 387 389 387 q 394 384 391 385 q 399 383 398 383 l 653 383 l 653 278 "},"˘":{"x_min":110.546875,"x_max":663.296875,"ha":774,"o":"m 663 1052 q 657 1010 661 1035 q 641 955 653 984 q 610 898 630 927 q 560 846 591 869 q 487 808 530 823 q 387 794 445 794 q 286 808 328 794 q 213 846 243 823 q 163 898 183 869 q 132 955 143 927 q 116 1010 121 984 q 110 1052 111 1035 l 238 1052 q 251 1023 242 1040 q 276 990 259 1006 q 319 964 293 975 q 387 952 346 952 q 454 964 427 952 q 497 990 480 975 q 523 1023 514 1006 q 537 1052 533 1040 l 663 1052 "},"ò":{"x_min":67.828125,"x_max":880.328125,"ha":947,"o":"m 880 247 q 868 165 880 202 q 838 102 857 129 q 794 55 819 74 q 741 23 769 35 q 686 5 714 11 q 632 0 657 0 l 314 0 q 234 12 278 0 q 154 55 191 25 q 92 131 117 84 q 67 247 67 179 l 67 486 q 92 601 67 554 q 154 677 117 648 q 234 720 191 707 q 314 733 278 733 l 632 733 q 748 708 700 733 q 824 647 795 684 q 867 567 853 610 q 880 486 880 523 l 880 247 m 704 484 q 685 539 704 521 q 632 556 667 556 l 316 556 q 262 538 280 556 q 244 486 244 520 l 244 247 q 262 194 244 212 q 316 176 280 176 l 632 176 q 686 194 668 176 q 704 247 704 212 l 704 484 m 185 1118 l 512 928 l 464 827 l 110 953 l 185 1118 "},"^":{"x_min":20.34375,"x_max":577.171875,"ha":598,"o":"m 577 472 l 293 787 l 20 473 l 20 701 l 233 946 q 293 973 258 973 q 326 966 310 973 q 354 947 342 959 l 577 697 l 577 472 "},"«":{"x_min":44.078125,"x_max":906.78125,"ha":967,"o":"m 545 645 l 229 362 l 543 88 l 316 88 l 71 302 q 44 362 44 326 q 50 395 44 379 q 70 422 57 411 l 320 645 l 545 645 m 906 645 l 591 362 l 905 88 l 677 88 l 432 302 q 404 362 404 326 q 412 395 404 379 q 431 422 419 411 l 681 645 l 906 645 "},"D":{"x_min":101.0625,"x_max":1072.953125,"ha":1143,"o":"m 1072 406 q 1042 243 1072 318 q 956 114 1011 168 q 828 30 902 61 q 666 0 753 0 l 189 0 q 154 6 170 0 q 126 25 138 13 q 107 53 114 37 q 101 88 101 69 l 101 883 q 107 918 101 902 q 126 946 114 934 q 154 965 138 959 q 189 972 170 972 l 666 972 q 828 942 753 972 q 956 857 902 911 q 1042 728 1011 803 q 1072 565 1072 653 l 1072 406 m 896 565 q 879 659 896 617 q 832 732 863 702 q 759 779 802 763 q 666 796 717 796 l 277 796 l 277 176 l 666 176 q 759 192 717 176 q 832 239 802 209 q 879 312 863 269 q 896 406 896 354 l 896 565 "},"ÿ":{"x_min":78.671875,"x_max":891.1875,"ha":977,"o":"m 891 -70 q 879 -152 891 -115 q 849 -216 868 -188 q 805 -262 830 -243 q 752 -294 779 -282 q 697 -312 725 -306 q 644 -318 669 -318 l 326 -318 l 326 -141 l 644 -141 q 697 -123 679 -141 q 714 -70 714 -105 l 714 733 l 891 733 l 891 -70 m 644 0 l 326 0 q 245 12 288 0 q 164 55 202 25 q 103 131 127 84 q 78 247 78 179 l 78 733 l 255 733 l 255 247 q 273 194 255 212 q 327 176 291 176 l 644 176 l 644 0 m 414 932 q 407 898 414 914 q 388 870 400 882 q 360 852 376 858 q 326 845 344 845 q 292 852 308 845 q 264 870 276 858 q 246 898 252 882 q 239 932 239 914 q 246 966 239 950 q 264 994 252 982 q 292 1013 276 1006 q 326 1020 308 1020 q 360 1013 344 1020 q 388 994 376 1006 q 407 966 400 982 q 414 932 414 950 m 728 932 q 721 898 728 914 q 702 870 714 882 q 674 852 690 858 q 640 845 658 845 q 606 852 622 845 q 578 870 590 858 q 560 898 567 882 q 553 932 553 914 q 560 966 553 950 q 578 994 567 982 q 606 1013 590 1006 q 640 1020 622 1020 q 674 1013 658 1020 q 702 994 690 1006 q 721 966 714 982 q 728 932 728 950 "},"í":{"x_min":85.453125,"x_max":534.921875,"ha":348,"o":"m 261 0 l 85 0 l 85 733 l 261 733 l 261 0 m 534 953 l 180 827 l 134 928 l 460 1118 l 534 953 "},"ˆ":{"x_min":69.171875,"x_max":705.359375,"ha":774,"o":"m 623 786 l 387 908 l 151 786 l 69 900 l 387 1080 l 705 900 l 623 786 "},"w":{"x_min":82.75,"x_max":1289.984375,"ha":1268,"o":"m 1289 733 q 1199 547 1247 638 q 1097 375 1150 456 q 988 224 1043 293 q 877 106 932 155 q 771 28 823 56 q 673 0 719 0 q 638 6 654 0 q 609 25 621 13 q 590 53 597 37 q 583 88 583 69 l 583 417 l 233 26 q 204 6 220 12 q 171 0 188 0 q 137 6 153 0 q 109 25 121 13 q 89 53 96 37 q 82 88 82 69 l 82 733 l 259 733 l 259 315 l 610 708 q 655 732 629 727 q 706 726 681 737 q 746 694 731 716 q 760 645 760 672 l 760 226 q 864 342 817 281 q 949 468 910 403 q 1024 599 989 533 q 1092 733 1059 666 l 1289 733 "},"$":{"x_min":50.859375,"x_max":687.046875,"ha":738,"o":"m 687 486 q 675 375 687 423 q 643 291 663 327 q 598 232 623 256 q 547 194 573 208 q 495 174 520 180 q 448 168 469 168 l 448 0 l 289 0 l 289 168 l 130 168 l 130 326 l 446 326 q 460 328 451 326 q 480 340 470 331 q 501 364 491 348 q 518 406 512 380 l 130 406 q 99 413 113 406 q 74 429 84 419 q 57 454 63 440 q 50 486 50 469 q 61 589 50 544 q 87 666 71 633 q 123 721 103 699 q 162 758 143 744 q 205 784 183 775 q 243 797 226 793 q 273 803 261 802 q 289 804 285 804 l 289 972 l 448 972 l 448 804 l 607 804 l 607 645 l 290 645 q 277 642 286 645 q 257 632 268 640 q 236 608 246 623 q 219 565 225 592 l 607 565 q 638 559 624 565 q 663 542 653 553 q 680 517 674 531 q 687 486 687 502 "},"\\":{"x_min":54.9375,"x_max":857.953125,"ha":916,"o":"m 857 0 l 668 0 l 54 972 l 244 972 l 857 0 "},"Ì":{"x_min":-167.0625,"x_max":280.109375,"ha":384,"o":"m 280 0 l 103 0 l 103 972 l 280 972 l 280 0 m -92 1355 l 234 1165 l 186 1064 l -167 1190 l -92 1355 "},"µ":{"x_min":98.34375,"x_max":910.859375,"ha":990,"o":"m 910 88 q 904 53 910 69 q 885 25 897 37 q 857 6 873 13 q 823 0 841 0 l 424 0 q 351 7 389 0 q 274 34 312 15 l 274 -318 l 98 -318 l 98 733 l 274 733 l 274 326 q 288 252 274 280 q 324 209 303 225 q 373 186 346 193 q 425 176 400 179 l 734 176 l 734 733 l 910 733 l 910 88 "},"Ç":{"x_min":89.53125,"x_max":973.25,"ha":1038,"o":"m 973 0 l 624 0 l 606 -47 q 650 -52 626 -47 q 697 -70 675 -56 q 734 -107 719 -83 q 749 -169 749 -130 q 730 -234 749 -208 q 679 -277 710 -261 q 610 -300 649 -293 q 534 -307 572 -307 q 476 -305 499 -307 q 437 -301 453 -303 q 408 -296 421 -299 q 383 -291 396 -293 l 383 -172 q 445 -193 410 -185 q 518 -202 481 -202 q 583 -194 557 -202 q 609 -168 609 -187 q 600 -150 609 -157 q 580 -140 592 -143 q 554 -134 568 -136 q 530 -133 541 -133 q 497 -135 514 -133 q 465 -141 479 -137 l 518 0 l 337 0 q 284 5 312 0 q 228 23 256 11 q 176 55 201 35 q 131 102 151 74 q 101 165 112 129 q 89 247 89 202 l 89 725 q 95 777 89 749 q 113 833 101 805 q 145 885 125 860 q 192 930 164 910 q 255 961 219 949 q 337 972 291 972 l 973 972 l 973 796 l 337 796 q 284 777 302 796 q 265 723 265 759 l 265 247 q 284 194 265 213 q 337 176 303 176 l 973 176 l 973 0 "},"’":{"x_min":53.578125,"x_max":282.8125,"ha":320,"o":"m 177 590 l 53 590 l 115 931 l 282 931 l 177 590 "},"-":{"x_min":78.671875,"x_max":714.84375,"ha":794,"o":"m 714 406 l 78 406 l 78 565 l 714 565 l 714 406 "},"Q":{"x_min":71.890625,"x_max":1123.140625,"ha":1195,"o":"m 1123 393 q 1105 265 1123 325 q 1054 156 1087 205 q 974 71 1021 107 q 871 13 928 34 l 1077 -149 l 822 -149 l 652 -13 l 478 -13 q 316 16 391 -13 q 187 101 242 46 q 102 229 133 155 q 71 393 71 304 l 71 579 q 102 742 71 667 q 187 871 133 817 q 316 955 242 925 q 478 986 391 986 l 717 986 q 879 955 805 986 q 1007 871 953 925 q 1092 742 1062 817 q 1123 579 1123 667 l 1123 393 m 946 579 q 930 673 946 631 q 883 746 913 716 q 810 793 853 776 q 717 809 768 809 l 478 809 q 384 793 427 809 q 311 746 342 776 q 264 673 281 716 q 248 579 248 631 l 248 393 q 264 298 248 341 q 311 226 281 256 q 384 179 342 196 q 478 162 427 162 l 716 162 q 810 179 767 162 q 883 226 852 196 q 930 298 913 256 q 946 393 946 341 l 946 579 "},"M":{"x_min":102.40625,"x_max":1234.359375,"ha":1337,"o":"m 1234 0 l 1056 0 l 1056 579 l 744 29 q 711 -2 732 8 q 667 -13 691 -13 q 624 -2 644 -13 q 592 29 604 8 l 278 579 l 278 0 l 102 0 l 102 897 q 120 951 102 927 q 167 983 138 975 q 196 985 181 986 q 223 979 210 984 q 247 965 236 974 q 265 943 258 956 l 667 245 l 1068 943 q 1111 980 1084 969 q 1169 983 1139 990 q 1216 951 1197 975 q 1234 897 1234 927 l 1234 0 "},"C":{"x_min":89.53125,"x_max":973.25,"ha":1038,"o":"m 973 0 l 337 0 q 284 5 312 0 q 228 23 256 11 q 176 55 201 35 q 131 102 151 74 q 101 165 112 129 q 89 247 89 202 l 89 725 q 95 777 89 749 q 113 833 101 805 q 145 885 125 860 q 192 930 164 910 q 255 961 219 949 q 337 972 291 972 l 973 972 l 973 796 l 337 796 q 284 777 302 796 q 265 723 265 759 l 265 247 q 284 194 265 213 q 337 176 303 176 l 973 176 l 973 0 "},"!":{"x_min":78.671875,"x_max":282.8125,"ha":362,"o":"m 241 238 l 120 238 l 78 972 l 282 972 l 241 238 m 269 88 q 262 54 269 70 q 243 26 255 38 q 215 8 231 14 q 181 1 199 1 q 147 8 163 1 q 119 26 131 14 q 101 54 107 38 q 94 88 94 70 q 101 122 94 106 q 119 150 107 138 q 147 169 131 162 q 181 176 163 176 q 215 169 199 176 q 243 150 231 162 q 262 122 255 138 q 269 88 269 106 "},"ç":{"x_min":67.828125,"x_max":792.84375,"ha":856,"o":"m 792 0 l 522 0 l 505 -47 q 549 -52 524 -47 q 596 -70 574 -56 q 633 -107 618 -83 q 648 -169 648 -130 q 629 -234 648 -208 q 578 -277 609 -261 q 509 -300 548 -293 q 432 -307 470 -307 q 375 -305 398 -307 q 335 -301 352 -303 q 306 -296 319 -299 q 281 -291 294 -293 l 281 -172 q 344 -193 308 -185 q 417 -202 379 -202 q 482 -194 456 -202 q 507 -168 507 -187 q 499 -150 507 -157 q 479 -140 491 -143 q 453 -134 467 -136 q 428 -133 439 -133 q 395 -135 413 -133 q 364 -141 378 -137 l 417 0 l 314 0 q 234 12 278 0 q 154 55 191 25 q 92 131 117 84 q 67 247 67 179 l 67 486 q 73 539 67 511 q 91 594 79 567 q 123 647 103 621 q 169 691 142 672 q 233 721 197 710 q 314 733 269 733 l 792 733 l 792 556 l 314 556 q 262 539 280 556 q 244 484 244 521 l 244 247 q 262 194 244 212 q 316 176 280 176 l 792 176 l 792 0 "},"È":{"x_min":98.34375,"x_max":981.390625,"ha":1049,"o":"m 902 397 l 345 397 l 345 575 l 902 575 l 902 397 m 981 0 l 345 0 q 265 12 308 0 q 184 55 221 25 q 123 131 147 84 q 98 247 98 179 l 98 883 q 105 918 98 902 q 123 946 111 934 q 151 965 135 959 q 187 972 168 972 l 981 972 l 981 796 l 274 796 l 274 247 q 292 194 274 212 q 346 176 311 176 l 981 176 l 981 0 m 309 1355 l 636 1165 l 588 1064 l 234 1190 l 309 1355 "},"ﬁ":{"x_min":85.453125,"x_max":986.8125,"ha":1072,"o":"m 731 874 l 334 874 q 280 856 298 874 q 261 804 261 838 l 261 0 l 85 0 l 85 804 q 96 885 85 849 q 127 949 108 921 q 172 995 147 976 q 224 1027 197 1015 q 280 1045 252 1039 q 333 1051 307 1051 l 731 1051 l 731 874 m 985 0 l 809 0 l 807 556 l 333 556 l 333 733 l 986 733 l 985 0 m 985 874 l 809 874 l 809 1048 l 985 1048 l 985 874 "},"{":{"x_min":14.921875,"x_max":541.21875,"ha":589,"o":"m 541 952 l 453 952 q 418 949 436 952 q 385 937 400 945 q 361 916 370 929 q 352 885 352 903 l 352 883 l 352 645 q 337 553 352 593 q 298 484 322 514 q 338 406 326 448 q 350 327 350 364 l 350 87 q 362 49 350 63 q 392 28 375 35 q 425 20 408 21 q 452 18 442 18 l 539 18 l 539 -160 l 451 -160 q 391 -154 423 -160 q 329 -135 360 -148 q 270 -103 298 -123 q 220 -56 242 -84 q 186 7 199 -28 q 174 88 174 43 l 174 326 q 155 379 174 362 q 103 397 137 397 q 68 404 84 397 q 40 423 52 411 q 21 451 28 435 q 14 486 14 467 q 21 520 14 504 q 40 548 28 536 q 68 567 52 560 q 102 575 84 574 q 157 593 139 575 q 175 645 175 611 l 175 885 q 199 988 175 943 q 262 1065 223 1034 q 351 1112 301 1096 q 453 1129 401 1129 l 541 1129 l 541 952 "},"X":{"x_min":10.859375,"x_max":1084.484375,"ha":1093,"o":"m 546 625 l 843 972 l 1084 972 l 666 484 l 1081 0 l 842 0 l 546 344 l 252 0 l 12 0 l 427 484 l 10 972 l 249 972 l 546 625 "},"ô":{"x_min":67.828125,"x_max":880.328125,"ha":947,"o":"m 880 247 q 868 165 880 202 q 838 102 857 129 q 794 55 819 74 q 741 23 769 35 q 686 5 714 11 q 632 0 657 0 l 314 0 q 234 12 278 0 q 154 55 191 25 q 92 131 117 84 q 67 247 67 179 l 67 486 q 92 601 67 554 q 154 677 117 648 q 234 720 191 707 q 314 733 278 733 l 632 733 q 748 708 700 733 q 824 647 795 684 q 867 567 853 610 q 880 486 880 523 l 880 247 m 704 484 q 685 539 704 521 q 632 556 667 556 l 316 556 q 262 538 280 556 q 244 486 244 520 l 244 247 q 262 194 244 212 q 316 176 280 176 l 632 176 q 686 194 668 176 q 704 247 704 212 l 704 484 m 709 827 l 473 949 l 237 827 l 155 941 l 473 1121 l 791 941 l 709 827 "},"¼":{"x_min":65.109375,"x_max":1023.4375,"ha":1096,"o":"m 757 883 l 257 8 l 95 8 l 595 883 l 757 883 m 252 421 l 128 421 l 128 743 l 65 743 l 65 866 l 252 866 l 252 421 m 1023 25 l 899 25 l 899 470 l 1023 470 l 1023 25 m 1023 185 l 672 185 q 647 190 658 185 q 627 203 636 195 q 613 223 618 212 q 609 247 609 234 l 609 470 l 733 470 l 733 309 l 1023 309 l 1023 185 "},"#":{"x_min":48.15625,"x_max":963.75,"ha":1013,"o":"m 162 708 l 307 708 l 358 931 l 522 931 l 473 708 l 642 708 l 692 931 l 857 931 l 807 708 l 963 708 l 928 550 l 773 550 l 737 384 l 887 384 l 852 226 l 702 226 l 652 0 l 486 0 l 537 226 l 367 226 l 317 0 l 152 0 l 202 226 l 48 226 l 85 384 l 236 384 l 273 550 l 124 550 l 162 708 m 402 384 l 571 384 l 607 550 l 438 550 l 402 384 "},"Ê":{"x_min":98.34375,"x_max":981.390625,"ha":1049,"o":"m 902 397 l 345 397 l 345 575 l 902 575 l 902 397 m 981 0 l 345 0 q 265 12 308 0 q 184 55 221 25 q 123 131 147 84 q 98 247 98 179 l 98 883 q 105 918 98 902 q 123 946 111 934 q 151 965 135 959 q 187 972 168 972 l 981 972 l 981 796 l 274 796 l 274 247 q 292 194 274 212 q 346 176 311 176 l 981 176 l 981 0 m 776 1064 l 540 1186 l 304 1064 l 222 1178 l 540 1358 l 858 1178 l 776 1064 "},")":{"x_min":9.5,"x_max":541.21875,"ha":593,"o":"m 541 486 q 526 355 541 419 q 488 228 512 290 q 434 111 464 167 q 371 6 403 55 q 308 -81 339 -42 q 253 -149 278 -121 l 9 -149 l 71 -87 q 94 -63 72 -86 q 148 0 115 -40 q 218 96 181 41 q 288 214 256 151 q 342 347 320 278 q 363 486 363 417 q 342 624 363 555 q 288 757 320 694 q 218 876 256 821 q 148 971 181 931 q 94 1035 115 1012 q 71 1060 72 1059 l 9 1122 l 253 1122 q 308 1054 278 1093 q 371 965 339 1014 q 434 861 403 916 q 488 743 464 805 q 526 617 512 682 q 541 486 541 552 "},"Å":{"x_min":84.09375,"x_max":1056.671875,"ha":1159,"o":"m 1056 0 l 880 0 l 880 238 l 260 238 l 260 0 l 84 0 l 84 486 q 120 682 84 592 q 222 836 157 771 q 376 936 287 900 q 570 972 465 972 l 967 972 q 1002 965 986 972 q 1030 946 1018 959 q 1049 918 1043 934 q 1056 883 1056 902 l 1056 0 m 260 415 l 880 415 l 880 796 l 570 796 q 536 793 562 796 q 475 781 510 791 q 403 752 441 772 q 333 698 365 733 q 281 612 301 663 q 260 486 260 560 l 260 415 m 372 1196 q 387 1259 372 1229 q 427 1310 402 1288 q 489 1345 453 1332 q 570 1358 526 1358 q 655 1345 618 1358 q 717 1310 692 1332 q 754 1259 741 1288 q 766 1196 766 1229 q 753 1133 766 1163 q 714 1081 739 1104 q 652 1046 688 1059 q 570 1033 615 1033 q 486 1046 523 1033 q 424 1081 450 1059 q 386 1133 399 1104 q 372 1196 372 1163 m 503 1196 q 520 1149 503 1168 q 570 1130 537 1130 q 619 1149 602 1130 q 635 1196 635 1168 q 619 1242 635 1223 q 570 1261 602 1261 q 520 1242 537 1261 q 503 1196 503 1223 "},"ø":{"x_min":57.65625,"x_max":891.1875,"ha":947,"o":"m 796 674 q 835 632 819 655 q 861 583 851 609 q 875 533 870 558 q 880 486 880 508 l 880 247 q 868 165 880 202 q 838 102 857 129 q 794 55 819 74 q 741 23 769 35 q 686 5 714 11 q 632 0 657 0 l 314 0 l 305 0 l 253 -70 l 57 -70 l 151 56 q 91 132 115 86 q 67 247 67 179 l 67 486 q 92 601 67 554 q 154 677 117 648 q 234 720 191 707 q 314 733 278 733 l 632 733 l 642 733 l 693 804 l 891 804 l 796 674 m 244 247 q 256 201 244 219 l 513 556 l 316 556 q 262 538 280 556 q 244 486 244 520 l 244 247 m 704 484 q 691 530 704 513 l 432 176 l 632 176 q 686 194 668 176 q 704 247 704 212 l 704 484 "},"â":{"x_min":35.953125,"x_max":839.640625,"ha":907,"o":"m 839 242 q 826 163 839 206 q 785 85 813 121 q 709 24 756 48 q 596 0 663 0 l 278 0 q 199 12 242 0 q 121 54 157 25 q 60 129 84 83 q 35 242 35 176 q 48 322 35 279 q 90 401 61 364 q 165 461 119 437 q 278 486 212 486 l 596 486 l 596 318 l 278 318 q 223 296 242 318 q 203 241 203 274 q 226 187 203 206 q 280 168 248 168 l 596 168 q 652 189 632 168 q 672 244 672 211 l 672 490 q 650 545 672 524 q 596 565 629 565 l 209 565 l 209 733 l 596 733 q 675 720 633 733 q 754 678 718 707 q 815 603 790 649 q 839 490 839 556 l 839 242 m 673 827 l 437 949 l 201 827 l 119 941 l 437 1121 l 755 941 l 673 827 "},"}":{"x_min":48.15625,"x_max":574.453125,"ha":589,"o":"m 574 486 q 567 451 574 467 q 549 423 560 435 q 521 404 537 411 q 486 397 505 397 q 433 379 452 397 q 415 326 415 362 l 416 88 q 403 7 416 43 q 368 -56 390 -28 q 319 -103 347 -84 q 260 -135 290 -123 q 197 -154 229 -148 q 138 -160 166 -160 l 50 -160 l 49 18 l 138 18 q 164 20 147 18 q 197 28 181 21 q 226 49 214 35 q 238 87 238 63 l 238 327 q 251 406 238 364 q 290 484 263 448 q 251 553 267 514 q 236 645 236 593 l 236 883 l 236 885 q 224 916 233 904 q 201 937 215 929 q 171 949 187 946 q 137 952 154 952 l 48 952 l 48 1129 l 137 1129 q 242 1111 191 1129 q 330 1062 292 1094 q 391 985 368 1030 q 413 885 413 940 q 414 820 413 880 q 415 645 415 761 q 432 593 415 611 q 486 575 450 575 q 521 567 505 574 q 549 548 537 560 q 567 520 560 536 q 574 486 574 504 "},"‰":{"x_min":53.578125,"x_max":1656.890625,"ha":1709,"o":"m 1149 247 q 1131 158 1149 200 q 1082 85 1113 116 q 1009 36 1051 54 q 920 18 967 18 q 830 36 872 18 q 757 85 788 54 q 707 158 725 116 q 689 247 689 200 q 707 336 689 295 q 757 409 725 378 q 830 459 788 441 q 920 478 872 478 q 1009 459 967 478 q 1082 409 1051 441 q 1131 336 1113 378 q 1149 247 1149 295 m 927 883 l 427 8 l 264 8 l 765 883 l 927 883 m 513 645 q 495 555 513 597 q 445 482 477 514 q 372 433 414 451 q 282 415 330 415 q 193 433 235 415 q 120 482 151 451 q 71 555 89 514 q 53 645 53 597 q 71 734 53 693 q 120 807 89 776 q 193 856 151 838 q 282 874 235 874 q 372 856 330 874 q 445 807 414 838 q 495 734 477 776 q 513 645 513 693 m 1007 247 q 1001 281 1007 265 q 982 309 994 297 q 954 329 970 322 q 920 336 938 336 q 885 329 902 336 q 857 309 869 322 q 838 281 845 297 q 831 247 831 265 q 838 213 831 229 q 857 185 845 197 q 885 166 869 173 q 920 160 902 160 q 954 166 938 160 q 982 185 970 173 q 1001 213 994 197 q 1007 247 1007 229 m 371 645 q 364 679 371 663 q 346 707 358 695 q 318 726 334 719 q 282 733 301 733 q 248 726 264 733 q 220 707 232 719 q 202 679 208 695 q 195 645 195 663 q 202 611 195 627 q 220 582 208 594 q 248 563 232 570 q 282 556 264 556 q 318 563 301 556 q 346 582 334 570 q 364 611 358 594 q 371 645 371 627 m 1656 247 q 1638 158 1656 200 q 1589 85 1620 116 q 1516 36 1558 54 q 1427 18 1475 18 q 1337 36 1379 18 q 1264 85 1295 54 q 1215 158 1233 116 q 1197 247 1197 200 q 1215 336 1197 295 q 1264 409 1233 378 q 1337 459 1295 441 q 1427 478 1379 478 q 1516 459 1475 478 q 1589 409 1558 441 q 1638 336 1620 378 q 1656 247 1656 295 m 1515 247 q 1508 281 1515 265 q 1489 309 1501 297 q 1461 329 1477 322 q 1427 336 1445 336 q 1393 329 1409 336 q 1364 309 1376 322 q 1345 281 1353 297 q 1338 247 1338 265 q 1345 213 1338 229 q 1364 185 1353 197 q 1393 166 1376 173 q 1427 160 1409 160 q 1461 166 1445 160 q 1489 185 1477 173 q 1508 213 1501 197 q 1515 247 1515 229 "},"Ä":{"x_min":84.09375,"x_max":1056.671875,"ha":1159,"o":"m 1056 0 l 880 0 l 880 238 l 260 238 l 260 0 l 84 0 l 84 486 q 120 682 84 592 q 222 836 157 771 q 376 936 287 900 q 570 972 465 972 l 967 972 q 1002 965 986 972 q 1030 946 1018 959 q 1049 918 1043 934 q 1056 883 1056 902 l 1056 0 m 260 415 l 880 415 l 880 796 l 570 796 q 536 793 562 796 q 475 781 510 791 q 403 752 441 772 q 333 698 365 733 q 281 612 301 663 q 260 486 260 560 l 260 415 m 500 1169 q 493 1135 500 1151 q 474 1107 486 1119 q 446 1089 462 1095 q 412 1082 430 1082 q 378 1089 394 1082 q 350 1107 362 1095 q 332 1135 338 1119 q 325 1169 325 1151 q 332 1203 325 1187 q 350 1231 338 1219 q 378 1250 362 1243 q 412 1257 394 1257 q 446 1250 430 1257 q 474 1231 462 1243 q 493 1203 486 1219 q 500 1169 500 1187 m 814 1169 q 807 1135 814 1151 q 788 1107 800 1119 q 760 1089 776 1095 q 726 1082 744 1082 q 692 1089 708 1082 q 664 1107 676 1095 q 646 1135 653 1119 q 639 1169 639 1151 q 646 1203 639 1187 q 664 1231 653 1219 q 692 1250 676 1243 q 726 1257 708 1257 q 760 1250 744 1257 q 788 1231 776 1243 q 807 1203 800 1219 q 814 1169 814 1187 "},"¸":{"x_min":149.203125,"x_max":516.125,"ha":701,"o":"m 373 -47 q 417 -52 392 -47 q 464 -70 442 -56 q 501 -107 486 -83 q 516 -169 516 -130 q 496 -234 516 -208 q 446 -277 477 -261 q 377 -300 415 -293 q 301 -307 339 -307 q 243 -305 266 -307 q 203 -301 220 -303 q 174 -296 187 -299 q 149 -291 162 -293 l 149 -172 q 212 -193 177 -185 q 285 -202 247 -202 q 349 -194 324 -202 q 375 -168 375 -187 q 367 -150 375 -157 q 347 -140 359 -143 q 321 -134 335 -136 q 297 -133 307 -133 q 263 -135 281 -133 q 232 -141 246 -137 l 290 12 l 396 12 l 373 -47 "},"a":{"x_min":35.953125,"x_max":839.640625,"ha":907,"o":"m 839 242 q 826 163 839 206 q 785 85 813 121 q 709 24 756 48 q 596 0 663 0 l 278 0 q 199 12 242 0 q 121 54 157 25 q 60 129 84 83 q 35 242 35 176 q 48 322 35 279 q 90 401 61 364 q 165 461 119 437 q 278 486 212 486 l 596 486 l 596 318 l 278 318 q 223 296 242 318 q 203 241 203 274 q 226 187 203 206 q 280 168 248 168 l 596 168 q 652 189 632 168 q 672 244 672 211 l 672 490 q 650 545 672 524 q 596 565 629 565 l 209 565 l 209 733 l 596 733 q 675 720 633 733 q 754 678 718 707 q 815 603 790 649 q 839 490 839 556 l 839 242 "},"—":{"x_min":78.671875,"x_max":1189.609375,"ha":1268,"o":"m 1189 406 l 78 406 l 78 565 l 1189 565 l 1189 406 "},"=":{"x_min":92.234375,"x_max":728.40625,"ha":821,"o":"m 728 565 l 92 565 l 92 725 l 728 725 l 728 565 m 728 247 l 92 247 l 92 406 l 728 406 l 728 247 "},"N":{"x_min":102.40625,"x_max":1074.3125,"ha":1177,"o":"m 1074 75 q 1067 40 1074 56 q 1048 11 1060 23 q 1020 -6 1036 0 q 985 -13 1003 -13 q 952 -7 969 -13 q 923 12 935 -1 l 278 685 l 278 0 l 102 0 l 102 897 q 117 946 102 924 q 156 979 132 968 q 208 984 181 989 q 253 959 234 979 l 897 287 l 897 972 l 1074 972 l 1074 75 "},"˚":{"x_min":189.90625,"x_max":583.953125,"ha":774,"o":"m 189 918 q 204 981 189 951 q 244 1032 219 1010 q 306 1067 270 1054 q 387 1080 343 1080 q 472 1067 435 1080 q 534 1032 509 1054 q 571 981 558 1010 q 583 918 583 951 q 570 855 583 885 q 531 803 556 826 q 469 768 505 781 q 387 755 432 755 q 303 768 340 755 q 241 803 267 781 q 203 855 216 826 q 189 918 189 885 m 320 918 q 337 871 320 890 q 387 852 354 852 q 436 871 419 852 q 452 918 452 890 q 436 964 452 945 q 387 983 419 983 q 337 964 354 983 q 320 918 320 945 "},"ú":{"x_min":71.890625,"x_max":884.40625,"ha":967,"o":"m 884 88 q 877 53 884 69 q 858 25 870 37 q 831 6 847 13 q 796 0 815 0 l 398 0 q 328 7 365 0 q 255 31 291 14 q 186 73 219 48 q 127 135 152 99 q 87 219 102 171 q 71 326 71 266 l 71 733 l 248 733 l 248 326 q 260 264 248 291 q 292 217 271 236 q 340 186 312 197 q 399 176 367 176 l 708 176 l 708 733 l 884 733 l 884 88 m 837 912 l 483 786 l 437 887 l 763 1077 l 837 912 "},"⁄":{"x_min":18.984375,"x_max":681.609375,"ha":707,"o":"m 681 883 l 181 8 l 18 8 l 518 883 l 681 883 "},"2":{"x_min":71.890625,"x_max":965.109375,"ha":1045,"o":"m 965 0 l 71 0 l 71 326 q 77 379 71 351 q 95 435 83 407 q 127 488 107 463 q 173 532 146 513 q 237 563 201 552 q 318 575 273 575 l 716 575 q 769 593 752 575 q 786 645 786 611 l 786 723 q 769 777 786 759 q 717 796 751 796 l 151 796 l 151 972 l 717 972 q 798 961 762 972 q 861 930 834 949 q 908 885 889 910 q 941 833 928 860 q 959 777 953 805 q 965 725 965 749 l 965 645 q 940 530 965 577 q 878 453 915 482 q 797 410 841 423 q 717 397 754 397 l 318 397 q 284 391 297 397 q 264 375 271 385 q 253 352 257 364 q 248 326 250 339 l 248 176 l 965 176 l 965 0 "},"ü":{"x_min":71.890625,"x_max":884.40625,"ha":967,"o":"m 884 88 q 877 53 884 69 q 858 25 870 37 q 831 6 847 13 q 796 0 815 0 l 398 0 q 328 7 365 0 q 255 31 291 14 q 186 73 219 48 q 127 135 152 99 q 87 219 102 171 q 71 326 71 266 l 71 733 l 248 733 l 248 326 q 260 264 248 291 q 292 217 271 236 q 340 186 312 197 q 399 176 367 176 l 708 176 l 708 733 l 884 733 l 884 88 m 407 932 q 400 898 407 914 q 381 870 393 882 q 353 852 369 858 q 319 845 337 845 q 285 852 301 845 q 257 870 269 858 q 239 898 245 882 q 232 932 232 914 q 239 966 232 950 q 257 994 245 982 q 285 1013 269 1006 q 319 1020 301 1020 q 353 1013 337 1020 q 381 994 369 1006 q 400 966 393 982 q 407 932 407 950 m 721 932 q 714 898 721 914 q 695 870 707 882 q 667 852 683 858 q 633 845 651 845 q 599 852 615 845 q 571 870 583 858 q 553 898 560 882 q 546 932 546 914 q 553 966 546 950 q 571 994 560 982 q 599 1013 583 1006 q 633 1020 615 1020 q 667 1013 651 1020 q 695 994 683 1006 q 714 966 707 982 q 721 932 721 950 "},"¯":{"x_min":159.375,"x_max":615.140625,"ha":774,"o":"m 159 813 l 159 973 l 615 973 l 615 813 l 159 813 "},"Z":{"x_min":49.3125,"x_max":941.859375,"ha":991,"o":"m 934 919 q 940 869 944 895 q 918 825 936 843 l 337 176 l 933 176 l 933 0 l 138 0 q 90 14 112 0 q 57 52 68 29 q 50 102 46 76 q 71 147 54 128 l 655 796 l 57 796 l 57 972 l 853 972 q 901 957 879 972 q 934 919 923 943 "},"u":{"x_min":71.890625,"x_max":884.40625,"ha":967,"o":"m 884 88 q 877 53 884 69 q 858 25 870 37 q 831 6 847 13 q 796 0 815 0 l 398 0 q 328 7 365 0 q 255 31 291 14 q 186 73 219 48 q 127 135 152 99 q 87 219 102 171 q 71 326 71 266 l 71 733 l 248 733 l 248 326 q 260 264 248 291 q 292 217 271 236 q 340 186 312 197 q 399 176 367 176 l 708 176 l 708 733 l 884 733 l 884 88 "},"˜":{"x_min":120.046875,"x_max":653.8125,"ha":774,"o":"m 653 1024 q 640 914 653 959 q 603 842 626 870 q 549 803 580 815 q 484 791 518 791 q 422 804 447 791 q 377 832 397 817 q 340 860 358 847 q 301 873 322 873 q 268 863 280 873 q 250 839 257 853 q 242 811 244 825 q 240 791 240 798 l 120 791 q 133 892 120 849 q 171 966 147 936 q 225 1010 194 995 q 290 1024 256 1024 q 346 1011 322 1024 q 389 983 369 999 q 429 955 410 968 q 473 943 448 943 q 505 953 493 943 q 523 976 517 963 q 531 1003 529 990 q 534 1024 533 1017 l 653 1024 "},"Ó":{"x_min":71.890625,"x_max":1123.140625,"ha":1195,"o":"m 1123 393 q 1092 229 1123 304 q 1007 101 1062 155 q 879 16 953 46 q 717 -13 805 -13 l 478 -13 q 316 16 391 -13 q 187 101 242 46 q 102 229 133 155 q 71 393 71 304 l 71 579 q 102 742 71 667 q 187 871 133 817 q 316 955 242 925 q 478 986 391 986 l 717 986 q 879 955 805 986 q 1007 871 953 925 q 1092 742 1062 817 q 1123 579 1123 667 l 1123 393 m 946 579 q 930 673 946 631 q 883 746 913 716 q 810 793 853 776 q 717 809 768 809 l 478 809 q 384 793 427 809 q 311 746 342 776 q 264 673 281 716 q 248 579 248 631 l 248 393 q 264 298 248 341 q 311 226 281 256 q 384 179 342 196 q 478 162 427 162 l 716 162 q 810 179 767 162 q 883 226 852 196 q 930 298 913 256 q 946 393 946 341 l 946 579 m 942 1190 l 588 1064 l 542 1165 l 868 1355 l 942 1190 "},"k":{"x_min":85.453125,"x_max":944.09375,"ha":960,"o":"m 944 0 l 689 0 l 334 343 q 306 411 304 370 q 316 446 307 430 q 339 474 324 463 l 661 734 l 944 734 l 529 400 l 944 0 m 261 0 l 85 0 l 85 1043 l 261 1043 l 261 0 "},"ˇ":{"x_min":69.171875,"x_max":705.359375,"ha":774,"o":"m 151 1066 l 387 944 l 623 1066 l 705 952 l 387 772 l 69 952 l 151 1066 "},"Ù":{"x_min":82.75,"x_max":1055.3125,"ha":1158,"o":"m 1055 88 q 1048 53 1055 69 q 1029 25 1041 37 q 1001 6 1017 13 q 966 0 984 0 l 569 0 q 455 12 512 0 q 343 49 397 24 q 242 114 289 75 q 159 207 194 153 q 103 331 123 261 q 82 486 82 400 l 82 972 l 259 972 l 259 486 q 279 360 259 411 q 332 274 300 308 q 402 219 364 239 q 474 190 440 200 q 534 178 508 181 q 569 176 560 176 l 878 176 l 878 972 l 1055 972 l 1055 88 m 310 1299 l 637 1109 l 589 1008 l 235 1134 l 310 1299 "},"€":{"x_min":70.53125,"x_max":1184.171875,"ha":1257,"o":"m 706 283 l 477 283 l 477 247 q 497 195 477 215 q 548 176 516 176 l 1184 176 l 1184 0 l 548 0 q 467 12 510 0 q 386 55 423 25 q 324 131 349 84 q 299 247 299 179 l 299 283 l 70 283 l 70 441 l 299 441 l 299 530 l 70 530 l 70 689 l 299 689 l 299 725 q 305 777 299 749 q 323 833 311 805 q 355 885 336 860 q 402 930 375 910 q 466 961 430 949 q 548 972 502 972 l 1184 972 l 1184 796 l 548 796 q 495 777 513 796 q 477 723 477 759 l 477 689 l 706 689 l 706 530 l 477 530 l 477 441 l 706 441 l 706 283 "},"¢":{"x_min":67.828125,"x_max":631.421875,"ha":709,"o":"m 631 168 l 464 168 l 464 0 l 306 0 l 306 168 q 228 180 270 168 q 151 221 187 193 q 91 295 115 250 q 67 406 67 341 l 67 565 q 80 643 67 601 q 121 720 92 685 q 195 780 149 756 q 306 804 240 804 l 306 972 l 464 972 l 464 804 l 631 804 l 631 645 l 306 645 q 247 623 268 645 q 227 565 227 600 l 227 406 q 248 348 227 370 q 306 326 270 326 l 631 326 l 631 168 "},"ß":{"x_min":85.453125,"x_max":1052.609375,"ha":1088,"o":"m 1052 245 q 1028 130 1052 177 q 966 54 1003 84 q 886 12 929 25 q 806 0 843 0 l 331 0 l 331 176 l 806 176 q 859 194 841 176 q 877 245 877 212 q 806 316 875 316 l 534 316 q 435 336 476 316 q 370 387 395 356 q 334 453 345 417 q 322 519 322 489 q 343 617 322 577 q 396 682 364 657 q 465 719 428 708 q 534 730 502 730 l 569 730 q 639 800 639 730 q 569 870 637 870 l 333 870 q 279 852 297 870 q 261 800 261 834 l 261 0 l 85 0 l 85 800 q 109 914 85 868 q 171 990 134 961 q 251 1032 208 1020 q 331 1045 294 1045 l 569 1045 q 649 1034 613 1045 q 713 1004 685 1023 q 760 960 740 984 q 792 907 779 935 q 810 852 805 880 q 816 800 816 824 q 791 685 816 732 q 730 609 767 638 q 649 566 693 579 q 569 554 606 554 l 535 554 q 514 550 522 554 q 503 542 507 547 q 499 531 500 537 q 499 520 499 525 q 502 504 499 510 q 510 496 505 499 q 521 493 515 493 q 534 493 528 493 l 806 493 q 887 481 851 493 q 950 451 923 470 q 997 406 978 432 q 1028 354 1016 381 q 1046 298 1041 326 q 1052 245 1052 270 "},"é":{"x_min":67.828125,"x_max":871.515625,"ha":907,"o":"m 871 490 q 858 411 871 453 q 816 332 845 368 q 741 271 788 296 q 628 247 695 247 l 310 247 l 310 415 l 628 415 q 684 437 664 415 q 704 491 704 459 q 681 545 704 526 q 628 565 659 565 l 310 565 q 255 543 274 565 q 235 489 235 521 l 235 242 q 257 187 235 207 q 311 168 279 168 l 628 168 l 628 0 l 310 0 q 231 12 274 0 q 152 54 189 25 q 92 129 116 83 q 67 242 67 176 l 67 490 q 80 569 67 526 q 122 648 93 611 q 197 708 151 684 q 310 733 244 733 l 628 733 q 707 720 665 733 q 786 678 750 707 q 847 603 822 649 q 871 490 871 556 m 822 953 l 468 827 l 422 928 l 748 1118 l 822 953 "},"s":{"x_min":57.65625,"x_max":791.484375,"ha":832,"o":"m 791 247 q 779 165 791 202 q 749 102 768 129 q 705 55 730 74 q 652 23 680 35 q 597 5 625 11 q 543 0 569 0 l 66 0 l 66 176 l 542 176 q 596 194 578 176 q 615 247 615 212 q 543 318 611 318 l 270 318 q 171 338 212 318 q 105 389 130 358 q 68 455 80 419 q 57 520 57 490 q 78 620 57 579 q 131 685 99 660 q 200 721 163 710 q 270 733 238 733 l 704 733 l 704 556 l 271 556 q 250 553 258 556 q 239 545 242 550 q 234 534 235 540 q 233 523 233 529 q 238 506 234 512 q 246 497 241 500 q 258 494 251 495 q 270 494 264 494 l 543 494 q 659 470 611 494 q 735 408 706 445 q 778 328 765 371 q 791 247 791 284 "},"B":{"x_min":101.0625,"x_max":1072.953125,"ha":1124,"o":"m 1072 213 q 1061 143 1072 181 q 1025 74 1050 106 q 959 21 999 42 q 859 0 918 0 l 189 0 q 154 6 170 0 q 126 25 138 13 q 107 53 114 37 q 101 88 101 69 l 101 883 q 107 918 101 902 q 126 946 114 934 q 154 965 138 959 q 189 972 170 972 l 779 972 q 849 961 812 972 q 919 924 887 949 q 972 857 951 898 q 994 758 994 817 l 994 725 q 978 624 994 678 q 928 522 963 570 q 984 478 958 503 q 1030 418 1010 452 q 1061 341 1049 384 q 1072 247 1072 299 l 1072 213 m 896 247 q 885 309 896 282 q 855 356 874 337 q 807 386 835 376 q 745 397 779 397 l 347 397 l 347 575 l 666 575 q 728 585 700 575 q 775 615 756 596 q 806 662 795 635 q 816 725 816 690 l 816 758 q 779 796 816 796 l 277 796 l 277 176 l 859 176 q 870 177 864 176 q 883 181 877 177 q 892 192 888 184 q 896 215 896 200 l 896 247 "},"…":{"x_min":54.9375,"x_max":718.921875,"ha":774,"o":"m 229 88 q 222 54 229 70 q 203 26 215 38 q 176 8 191 14 q 142 1 160 1 q 108 8 124 1 q 80 26 92 14 q 61 54 68 38 q 54 88 54 70 q 61 122 54 106 q 80 150 68 138 q 108 169 92 162 q 142 176 124 176 q 176 169 160 176 q 203 150 191 162 q 222 122 215 138 q 229 88 229 106 m 474 88 q 467 54 474 70 q 448 26 460 38 q 420 8 436 14 q 387 1 404 1 q 353 8 368 1 q 325 26 337 14 q 306 54 313 38 q 299 88 299 70 q 306 122 299 106 q 325 150 313 138 q 353 169 337 162 q 387 176 368 176 q 420 169 404 176 q 448 150 436 162 q 467 122 460 138 q 474 88 474 106 m 718 88 q 711 54 718 70 q 692 26 704 38 q 665 8 680 14 q 631 1 649 1 q 597 8 613 1 q 569 26 581 14 q 550 54 557 38 q 543 88 543 70 q 550 122 543 106 q 569 150 557 138 q 597 169 581 162 q 631 176 613 176 q 665 169 649 176 q 692 150 680 162 q 711 122 704 138 q 718 88 718 106 "},"?":{"x_min":53.578125,"x_max":866.09375,"ha":924,"o":"m 866 645 q 853 564 866 608 q 810 484 840 521 q 734 422 781 446 q 619 397 687 397 l 469 397 l 469 238 l 292 238 l 292 486 q 299 520 292 504 q 317 548 305 536 q 345 568 329 560 q 379 575 361 575 l 619 575 q 671 592 653 575 q 689 645 689 610 l 689 725 q 672 777 689 759 q 619 796 654 796 l 53 796 l 53 972 l 619 972 q 699 959 656 972 q 780 916 743 946 q 841 840 817 887 q 866 725 866 792 l 866 645 m 467 88 q 460 54 467 70 q 441 26 453 38 q 414 8 430 14 q 379 1 398 1 q 346 8 362 1 q 318 26 330 14 q 299 54 306 38 q 292 88 292 70 q 299 122 292 106 q 318 150 306 138 q 346 169 330 162 q 379 176 362 176 q 414 169 398 176 q 441 150 430 162 q 460 122 453 138 q 467 88 467 106 "},"H":{"x_min":103.765625,"x_max":1075.65625,"ha":1179,"o":"m 280 575 l 899 575 l 899 972 l 1075 972 l 1075 0 l 899 0 l 899 397 l 280 397 l 280 0 l 103 0 l 103 972 l 280 972 l 280 575 "},"î":{"x_min":-142.828125,"x_max":493.359375,"ha":348,"o":"m 261 0 l 85 0 l 85 733 l 261 733 l 261 0 m 411 786 l 175 908 l -60 786 l -142 900 l 175 1080 l 493 900 l 411 786 "},"c":{"x_min":67.828125,"x_max":792.84375,"ha":856,"o":"m 792 0 l 314 0 q 234 12 278 0 q 154 55 191 25 q 92 131 117 84 q 67 247 67 179 l 67 486 q 73 539 67 511 q 91 594 79 567 q 123 647 103 621 q 169 691 142 672 q 233 721 197 710 q 314 733 269 733 l 792 733 l 792 556 l 314 556 q 262 539 280 556 q 244 484 244 521 l 244 247 q 262 194 244 212 q 316 176 280 176 l 792 176 l 792 0 "},"¶":{"x_min":57.65625,"x_max":1206.5625,"ha":1310,"o":"m 883 796 q 891 725 891 762 l 891 0 l 714 0 l 714 725 q 696 777 714 759 q 642 796 678 796 l 384 796 q 323 785 349 796 q 278 754 297 773 q 248 706 259 734 q 233 645 237 678 l 233 565 q 244 504 233 531 q 275 459 255 478 q 322 428 295 440 q 384 415 350 417 l 644 415 l 644 238 l 384 238 q 315 246 352 238 q 241 269 278 253 q 172 311 205 286 q 113 374 139 337 q 72 457 88 410 q 57 565 57 505 l 57 645 q 65 715 57 678 q 89 788 72 752 q 131 857 105 824 q 193 916 157 891 q 277 957 229 942 q 384 972 324 972 l 644 972 q 721 959 679 972 q 800 919 764 946 l 800 972 l 959 972 q 1039 959 996 972 q 1119 916 1082 946 q 1181 840 1157 887 q 1206 725 1206 792 l 1206 0 l 1030 0 l 1030 725 q 1011 777 1030 759 q 957 796 993 796 l 883 796 "},"−":{"x_min":90.875,"x_max":727.0625,"ha":819,"o":"m 727 406 l 90 406 l 90 565 l 727 565 l 727 406 "},"•":{"x_min":95.625,"x_max":367.59375,"ha":463,"o":"m 367 494 q 356 440 367 465 q 327 397 345 415 q 283 368 308 379 q 231 358 259 358 q 178 368 202 358 q 134 397 153 379 q 106 440 116 415 q 95 494 95 465 q 106 545 95 521 q 134 589 116 570 q 178 618 153 607 q 231 629 202 629 q 283 618 259 629 q 327 589 308 607 q 356 545 345 570 q 367 494 367 521 "},"¥":{"x_min":75.96875,"x_max":1042.421875,"ha":1118,"o":"m 876 87 l 648 87 l 648 0 l 472 0 l 472 87 l 242 87 l 242 245 l 472 245 l 472 316 l 400 316 q 331 324 368 316 q 258 347 295 331 q 189 389 222 364 q 131 451 156 415 q 90 534 105 487 q 75 641 75 581 l 75 972 l 252 972 l 252 641 q 263 579 252 607 q 295 532 275 552 q 342 503 315 513 q 402 493 370 493 l 717 493 q 778 505 750 494 q 825 535 805 516 q 856 581 845 554 q 867 641 867 608 l 867 972 l 1042 972 l 1042 641 q 1027 534 1042 581 q 987 451 1012 487 q 929 389 962 415 q 859 347 895 364 q 787 324 824 331 q 717 316 750 316 l 648 316 l 648 245 l 876 245 l 876 87 "},"(":{"x_min":52.21875,"x_max":583.953125,"ha":593,"o":"m 583 1122 l 521 1060 q 498 1035 520 1059 q 444 971 476 1012 q 374 876 411 931 q 303 757 336 821 q 249 624 271 694 q 228 486 228 555 q 249 347 228 416 q 303 214 271 278 q 374 96 336 151 q 444 0 411 41 q 498 -63 476 -40 q 521 -87 520 -86 l 583 -149 l 339 -149 q 284 -81 315 -121 q 221 6 253 -42 q 159 111 189 55 q 105 228 128 167 q 66 355 81 290 q 52 486 52 419 q 66 617 52 552 q 105 743 81 682 q 159 861 128 805 q 221 965 189 916 q 284 1054 253 1014 q 339 1122 315 1093 l 583 1122 "},"U":{"x_min":82.75,"x_max":1055.3125,"ha":1158,"o":"m 1055 88 q 1048 53 1055 69 q 1029 25 1041 37 q 1001 6 1017 13 q 966 0 984 0 l 569 0 q 455 12 512 0 q 343 49 397 24 q 242 114 289 75 q 159 207 194 153 q 103 331 123 261 q 82 486 82 400 l 82 972 l 259 972 l 259 486 q 279 360 259 411 q 332 274 300 308 q 402 219 364 239 q 474 190 440 200 q 534 178 508 181 q 569 176 560 176 l 878 176 l 878 972 l 1055 972 l 1055 88 "},"Ñ":{"x_min":102.40625,"x_max":1074.3125,"ha":1177,"o":"m 1074 75 q 1067 40 1074 56 q 1048 11 1060 23 q 1020 -6 1036 0 q 985 -13 1003 -13 q 952 -7 969 -13 q 923 12 935 -1 l 278 685 l 278 0 l 102 0 l 102 897 q 117 946 102 924 q 156 979 132 968 q 208 984 181 989 q 253 959 234 979 l 897 287 l 897 972 l 1074 972 l 1074 75 m 854 1248 q 841 1138 854 1183 q 804 1066 827 1094 q 750 1027 781 1039 q 685 1015 719 1015 q 623 1028 648 1015 q 578 1056 598 1041 q 541 1084 559 1071 q 502 1097 523 1097 q 469 1087 481 1097 q 451 1063 458 1077 q 443 1035 445 1049 q 441 1015 441 1022 l 321 1015 q 334 1116 321 1073 q 372 1190 348 1160 q 426 1234 395 1219 q 491 1248 457 1248 q 547 1235 523 1248 q 590 1207 570 1223 q 630 1179 611 1192 q 674 1167 649 1167 q 706 1177 694 1167 q 724 1200 718 1187 q 732 1227 730 1214 q 735 1248 734 1241 l 854 1248 "},"F":{"x_min":102.40625,"x_max":985.453125,"ha":1025,"o":"m 906 397 l 349 397 l 349 575 l 906 575 l 906 397 m 985 796 l 278 796 l 278 0 l 102 0 l 102 883 q 109 918 102 902 q 127 946 115 934 q 155 965 139 959 q 191 972 172 972 l 985 972 l 985 796 "},"­":{"x_min":78.671875,"x_max":714.84375,"ha":794,"o":"m 714 406 l 78 406 l 78 565 l 714 565 l 714 406 "},":":{"x_min":81.390625,"x_max":256.375,"ha":338,"o":"m 256 88 q 249 54 256 70 q 230 26 242 38 q 202 8 218 14 q 168 1 186 1 q 134 8 150 1 q 106 26 118 14 q 88 54 94 38 q 81 88 81 70 q 88 122 81 106 q 106 150 94 138 q 134 169 118 162 q 168 176 150 176 q 202 169 186 176 q 230 150 218 162 q 249 122 242 138 q 256 88 256 106 m 256 644 q 249 610 256 626 q 230 582 242 594 q 202 563 218 570 q 168 556 186 556 q 134 563 150 556 q 106 582 118 570 q 88 610 94 594 q 81 644 81 626 q 88 677 81 661 q 106 705 94 693 q 134 724 118 717 q 168 731 150 731 q 202 724 186 731 q 230 705 218 717 q 249 677 242 693 q 256 644 256 661 "},"Û":{"x_min":82.75,"x_max":1055.3125,"ha":1158,"o":"m 1055 88 q 1048 53 1055 69 q 1029 25 1041 37 q 1001 6 1017 13 q 966 0 984 0 l 569 0 q 455 12 512 0 q 343 49 397 24 q 242 114 289 75 q 159 207 194 153 q 103 331 123 261 q 82 486 82 400 l 82 972 l 259 972 l 259 486 q 279 360 259 411 q 332 274 300 308 q 402 219 364 239 q 474 190 440 200 q 534 178 508 181 q 569 176 560 176 l 878 176 l 878 972 l 1055 972 l 1055 88 m 805 1064 l 569 1186 l 333 1064 l 251 1178 l 569 1358 l 887 1178 l 805 1064 "},"*":{"x_min":89.53125,"x_max":664.65625,"ha":754,"o":"m 306 797 l 306 972 l 448 972 l 448 798 l 581 894 l 664 779 l 498 659 l 664 540 l 581 425 l 448 520 l 448 347 l 306 347 l 306 520 l 171 425 l 89 540 l 255 659 l 89 779 l 171 894 l 306 797 "},"†":{"x_min":53.578125,"x_max":531.734375,"ha":585,"o":"m 379 883 l 531 883 l 531 725 l 379 725 l 379 -160 l 203 -160 l 203 725 l 53 725 l 53 883 l 203 883 l 203 1131 l 379 1131 l 379 883 "},"°":{"x_min":50.859375,"x_max":444.234375,"ha":495,"o":"m 50 734 q 66 811 50 775 q 108 873 81 847 q 170 916 134 900 q 246 931 206 931 q 323 916 287 931 q 386 873 359 900 q 428 811 413 847 q 444 734 444 775 q 428 658 444 693 q 386 596 413 622 q 323 554 359 569 q 246 539 287 539 q 170 554 206 539 q 108 596 134 569 q 66 658 81 622 q 50 734 50 693 m 172 734 q 193 682 172 703 q 246 661 215 661 q 276 667 262 661 q 299 682 289 672 q 315 705 309 692 q 321 734 321 718 q 315 764 321 750 q 299 788 309 777 q 276 804 289 798 q 246 809 262 809 q 193 788 215 809 q 172 734 172 766 "},"V":{"x_min":-3.390625,"x_max":1075.65625,"ha":1073,"o":"m 1075 972 l 615 34 q 582 0 604 12 q 535 -13 561 -13 q 489 0 510 -13 q 456 34 467 12 l -3 972 l 193 972 l 535 271 l 878 972 l 1075 972 "},"å":{"x_min":35.953125,"x_max":839.640625,"ha":907,"o":"m 839 242 q 826 163 839 206 q 785 85 813 121 q 709 24 756 48 q 596 0 663 0 l 278 0 q 199 12 242 0 q 121 54 157 25 q 60 129 84 83 q 35 242 35 176 q 48 322 35 279 q 90 401 61 364 q 165 461 119 437 q 278 486 212 486 l 596 486 l 596 318 l 278 318 q 223 296 242 318 q 203 241 203 274 q 226 187 203 206 q 280 168 248 168 l 596 168 q 652 189 632 168 q 672 244 672 211 l 672 490 q 650 545 672 524 q 596 565 629 565 l 209 565 l 209 733 l 596 733 q 675 720 633 733 q 754 678 718 707 q 815 603 790 649 q 839 490 839 556 l 839 242 m 239 959 q 254 1022 239 992 q 294 1073 269 1051 q 356 1108 320 1095 q 437 1121 393 1121 q 522 1108 485 1121 q 584 1073 559 1095 q 621 1022 608 1051 q 633 959 633 992 q 620 896 633 926 q 581 844 606 867 q 519 809 555 822 q 437 796 482 796 q 353 809 390 796 q 291 844 317 822 q 253 896 266 867 q 239 959 239 926 m 370 959 q 387 912 370 931 q 437 893 404 893 q 486 912 469 893 q 502 959 502 931 q 486 1005 502 986 q 437 1024 469 1024 q 387 1005 404 1024 q 370 959 370 986 "}," ":{"x_min":0,"x_max":0,"ha":452},"0":{"x_min":77.3125,"x_max":1209.265625,"ha":1285,"o":"m 1209 406 q 1194 294 1209 347 q 1150 195 1178 240 q 1085 113 1123 149 q 1002 52 1047 78 q 906 13 956 27 q 802 0 855 0 l 484 0 q 379 13 430 0 q 283 52 328 27 q 200 113 238 78 q 135 195 162 149 q 92 294 107 240 q 77 406 77 347 l 77 565 q 110 729 77 655 q 200 858 144 804 q 330 942 257 912 q 484 972 404 972 l 802 972 q 906 959 855 972 q 1002 920 956 945 q 1085 858 1047 894 q 1150 777 1123 822 q 1194 678 1178 731 q 1209 565 1209 625 l 1209 406 m 1031 565 q 1012 660 1031 617 q 962 733 993 703 q 889 780 930 764 q 802 796 847 796 l 484 796 q 398 780 440 796 q 324 734 356 765 q 272 661 292 704 q 253 565 253 618 l 253 406 q 272 311 253 354 q 323 238 291 268 q 397 191 355 208 q 484 176 438 175 l 802 176 q 896 193 854 176 q 969 241 939 210 q 1015 314 999 271 q 1031 406 1031 356 l 1031 565 m 954 694 q 968 662 965 679 q 968 628 971 644 q 955 597 965 611 q 929 572 945 582 l 453 254 q 429 242 442 245 q 404 238 417 238 q 363 248 383 238 q 331 278 343 259 q 318 310 321 293 q 317 344 314 327 q 330 375 320 360 q 355 400 339 389 l 832 718 q 865 731 847 728 q 898 731 882 735 q 930 718 915 728 q 954 694 944 709 "},"”":{"x_min":53.578125,"x_max":533.078125,"ha":570,"o":"m 427 590 l 303 590 l 366 931 l 533 931 l 427 590 m 177 590 l 53 590 l 115 931 l 282 931 l 177 590 "},"¾":{"x_min":77.3125,"x_max":1202.484375,"ha":1276,"o":"m 937 883 l 436 8 l 274 8 l 774 883 l 937 883 m 1202 25 l 1079 25 l 1079 470 l 1202 470 l 1202 25 m 1202 185 l 851 185 q 826 190 838 185 q 806 203 815 195 q 793 223 798 212 q 788 247 788 234 l 788 470 l 912 470 l 912 309 l 1202 309 l 1202 185 m 417 581 l 77 581 l 77 705 l 417 705 l 417 581 m 459 547 q 447 493 459 516 q 418 453 436 469 q 378 429 400 437 q 333 421 356 421 l 77 421 l 77 544 l 335 544 l 335 743 l 77 743 l 77 866 l 333 866 q 387 855 363 866 q 426 826 411 844 q 451 786 442 808 q 459 740 459 763 l 459 547 "},"@":{"x_min":85.453125,"x_max":845.75,"ha":918,"o":"m 845 298 q 838 252 845 277 q 813 207 830 228 q 769 172 796 186 q 704 158 742 158 l 385 158 q 339 165 364 158 q 294 189 315 172 q 259 233 273 206 q 245 298 245 259 q 252 344 245 319 q 277 390 260 369 q 320 425 293 411 q 385 440 347 440 l 527 440 l 527 316 l 385 316 q 381 316 383 316 q 375 314 378 316 q 370 308 373 312 q 368 298 368 305 q 374 285 368 288 q 387 282 379 282 l 550 282 q 559 285 556 282 q 563 299 563 289 l 563 458 q 561 470 563 464 q 543 476 558 476 l 316 476 l 316 600 l 545 600 q 591 592 566 600 q 637 568 616 585 q 672 524 658 551 q 687 458 687 497 l 687 298 q 686 290 687 294 q 685 282 685 286 l 704 282 q 716 284 711 282 q 721 299 721 286 l 721 537 q 714 578 721 560 q 693 608 706 596 q 663 628 680 621 q 624 634 645 634 l 306 634 q 266 627 284 634 q 235 606 248 619 q 216 575 223 593 q 209 537 209 558 l 209 219 q 217 180 209 198 q 237 149 224 162 q 268 129 250 136 q 306 122 286 122 l 385 122 l 385 -1 l 306 -1 q 234 10 273 -1 q 162 48 196 21 q 107 116 129 74 q 85 219 85 158 l 85 537 q 96 609 85 571 q 134 681 108 648 q 203 736 161 714 q 306 758 245 758 l 624 758 q 696 746 657 758 q 768 709 735 735 q 823 640 801 682 q 845 537 845 598 l 845 298 "},"ö":{"x_min":67.828125,"x_max":880.328125,"ha":947,"o":"m 880 247 q 868 165 880 202 q 838 102 857 129 q 794 55 819 74 q 741 23 769 35 q 686 5 714 11 q 632 0 657 0 l 314 0 q 234 12 278 0 q 154 55 191 25 q 92 131 117 84 q 67 247 67 179 l 67 486 q 92 601 67 554 q 154 677 117 648 q 234 720 191 707 q 314 733 278 733 l 632 733 q 748 708 700 733 q 824 647 795 684 q 867 567 853 610 q 880 486 880 523 l 880 247 m 704 484 q 685 539 704 521 q 632 556 667 556 l 316 556 q 262 538 280 556 q 244 486 244 520 l 244 247 q 262 194 244 212 q 316 176 280 176 l 632 176 q 686 194 668 176 q 704 247 704 212 l 704 484 m 403 932 q 396 898 403 914 q 377 870 389 882 q 349 852 365 858 q 315 845 333 845 q 281 852 297 845 q 253 870 265 858 q 235 898 241 882 q 228 932 228 914 q 235 966 228 950 q 253 994 241 982 q 281 1013 265 1006 q 315 1020 297 1020 q 349 1013 333 1020 q 377 994 365 1006 q 396 966 389 982 q 403 932 403 950 m 717 932 q 710 898 717 914 q 691 870 703 882 q 663 852 679 858 q 629 845 647 845 q 595 852 611 845 q 567 870 579 858 q 549 898 556 882 q 542 932 542 914 q 549 966 542 950 q 567 994 556 982 q 595 1013 579 1006 q 629 1020 611 1020 q 663 1013 647 1020 q 691 994 679 1006 q 710 966 703 982 q 717 932 717 950 "},"i":{"x_min":85.453125,"x_max":261.796875,"ha":348,"o":"m 261 883 l 85 883 l 85 1043 l 261 1043 l 261 883 m 261 0 l 85 0 l 85 733 l 261 733 l 261 0 "},"Õ":{"x_min":71.890625,"x_max":1123.140625,"ha":1195,"o":"m 1123 393 q 1092 229 1123 304 q 1007 101 1062 155 q 879 16 953 46 q 717 -13 805 -13 l 478 -13 q 316 16 391 -13 q 187 101 242 46 q 102 229 133 155 q 71 393 71 304 l 71 579 q 102 742 71 667 q 187 871 133 817 q 316 955 242 925 q 478 986 391 986 l 717 986 q 879 955 805 986 q 1007 871 953 925 q 1092 742 1062 817 q 1123 579 1123 667 l 1123 393 m 946 579 q 930 673 946 631 q 883 746 913 716 q 810 793 853 776 q 717 809 768 809 l 478 809 q 384 793 427 809 q 311 746 342 776 q 264 673 281 716 q 248 579 248 631 l 248 393 q 264 298 248 341 q 311 226 281 256 q 384 179 342 196 q 478 162 427 162 l 716 162 q 810 179 767 162 q 883 226 852 196 q 930 298 913 256 q 946 393 946 341 l 946 579 m 863 1316 q 850 1206 863 1251 q 813 1134 836 1162 q 759 1095 790 1107 q 694 1083 728 1083 q 632 1096 657 1083 q 587 1124 607 1109 q 550 1152 568 1139 q 511 1165 532 1165 q 478 1155 490 1165 q 460 1131 467 1145 q 452 1103 454 1117 q 450 1083 450 1090 l 330 1083 q 343 1184 330 1141 q 381 1258 357 1228 q 435 1302 404 1287 q 500 1316 466 1316 q 556 1303 532 1316 q 599 1275 579 1291 q 639 1247 620 1260 q 683 1235 658 1235 q 715 1245 703 1235 q 733 1268 727 1255 q 741 1295 739 1282 q 744 1316 743 1309 l 863 1316 "},"þ":{"x_min":85.453125,"x_max":897.96875,"ha":966,"o":"m 897 247 q 886 165 897 202 q 855 102 874 129 q 811 55 836 74 q 759 23 786 35 q 703 5 731 11 q 651 0 676 0 l 333 0 l 333 176 l 651 176 q 703 194 686 176 q 721 247 721 212 l 721 484 q 703 539 721 521 q 651 556 685 556 l 334 556 q 261 493 263 556 l 261 -229 l 85 -229 l 85 1043 l 261 1043 l 261 722 q 297 730 279 727 q 333 733 316 733 l 651 733 q 732 721 696 733 q 795 691 768 710 q 842 647 823 672 q 874 594 862 621 q 892 539 886 567 q 897 486 897 511 l 897 247 "},"]":{"x_min":48.15625,"x_max":416.421875,"ha":507,"o":"m 416 -70 q 409 -104 416 -88 q 389 -133 402 -120 q 361 -152 377 -145 q 327 -160 345 -160 l 50 -160 l 50 18 l 238 18 l 236 952 l 48 952 l 48 1129 l 324 1129 q 359 1122 343 1129 q 388 1103 376 1115 q 408 1076 401 1091 q 416 1041 416 1060 l 416 -70 "},"m":{"x_min":82.75,"x_max":1133.984375,"ha":1213,"o":"m 737 0 l 560 0 l 560 486 q 542 538 560 520 q 488 556 524 556 l 259 556 l 259 0 l 82 0 l 82 645 q 89 679 82 663 q 108 707 96 695 q 137 726 120 719 q 171 733 153 733 l 489 733 q 568 720 526 733 q 648 678 610 707 l 648 733 l 887 733 q 940 727 912 733 q 995 709 967 721 q 1047 677 1022 697 q 1091 631 1072 658 q 1122 567 1110 603 q 1133 486 1133 531 l 1133 0 l 957 0 l 957 486 q 940 538 957 520 q 887 556 923 556 l 728 556 q 737 486 737 524 l 737 0 "},"8":{"x_min":71.890625,"x_max":965.109375,"ha":1036,"o":"m 965 247 q 959 194 965 222 q 941 139 953 166 q 908 86 928 111 q 861 42 889 61 q 798 11 834 23 q 717 0 762 0 l 318 0 q 238 12 282 0 q 158 55 195 25 q 96 131 121 84 q 71 247 71 179 l 71 326 q 77 380 71 352 q 95 436 83 408 q 128 489 108 464 q 175 533 147 514 q 157 590 163 561 q 151 645 151 619 l 151 725 q 176 840 151 792 q 237 916 200 887 q 318 959 274 946 q 398 972 361 972 l 636 972 q 718 961 682 972 q 782 930 754 949 q 829 885 809 910 q 860 833 848 860 q 878 777 872 805 q 884 725 884 749 l 884 645 q 860 530 884 579 q 901 496 882 516 q 934 452 920 477 q 956 395 948 427 q 965 326 965 364 l 965 247 m 708 723 q 689 777 708 759 q 636 796 671 796 l 399 796 q 346 777 363 796 q 328 725 328 759 l 328 645 q 346 592 328 610 q 398 575 364 575 l 636 575 q 690 593 672 575 q 708 645 708 611 l 708 723 m 786 326 q 768 378 786 360 q 717 397 749 397 l 318 397 q 267 377 286 397 q 248 326 248 356 l 248 247 q 268 195 248 215 q 318 176 288 176 l 717 176 q 769 196 751 176 q 786 247 786 217 l 786 326 "},"R":{"x_min":102.40625,"x_max":1116.359375,"ha":1149,"o":"m 1074 645 q 1059 537 1074 585 q 1019 454 1044 490 q 960 392 993 417 q 890 349 927 366 q 817 325 854 333 q 748 318 780 318 l 1116 0 l 843 0 l 476 318 l 349 318 l 349 494 l 748 494 q 808 508 781 497 q 856 538 836 519 q 887 584 876 557 q 897 645 897 611 l 897 756 q 894 779 897 771 q 884 791 890 787 q 872 795 878 794 q 860 796 866 796 l 278 796 l 278 0 l 102 0 l 102 883 q 109 918 102 902 q 127 946 115 934 q 155 965 139 959 q 191 972 172 972 l 860 972 q 960 951 919 972 q 1026 897 1001 929 q 1063 828 1051 865 q 1074 758 1074 790 l 1074 645 "},"á":{"x_min":35.953125,"x_max":839.640625,"ha":907,"o":"m 839 242 q 826 163 839 206 q 785 85 813 121 q 709 24 756 48 q 596 0 663 0 l 278 0 q 199 12 242 0 q 121 54 157 25 q 60 129 84 83 q 35 242 35 176 q 48 322 35 279 q 90 401 61 364 q 165 461 119 437 q 278 486 212 486 l 596 486 l 596 318 l 278 318 q 223 296 242 318 q 203 241 203 274 q 226 187 203 206 q 280 168 248 168 l 596 168 q 652 189 632 168 q 672 244 672 211 l 672 490 q 650 545 672 524 q 596 565 629 565 l 209 565 l 209 733 l 596 733 q 675 720 633 733 q 754 678 718 707 q 815 603 790 649 q 839 490 839 556 l 839 242 m 818 953 l 464 827 l 418 928 l 744 1118 l 818 953 "},"×":{"x_min":63.078125,"x_max":741.296875,"ha":804,"o":"m 741 725 l 502 486 l 741 247 l 541 247 l 402 385 l 263 247 l 63 247 l 302 486 l 63 725 l 263 725 l 402 585 l 541 725 l 741 725 "},"o":{"x_min":67.828125,"x_max":880.328125,"ha":947,"o":"m 880 247 q 868 165 880 202 q 838 102 857 129 q 794 55 819 74 q 741 23 769 35 q 686 5 714 11 q 632 0 657 0 l 314 0 q 234 12 278 0 q 154 55 191 25 q 92 131 117 84 q 67 247 67 179 l 67 486 q 92 601 67 554 q 154 677 117 648 q 234 720 191 707 q 314 733 278 733 l 632 733 q 748 708 700 733 q 824 647 795 684 q 867 567 853 610 q 880 486 880 523 l 880 247 m 704 484 q 685 539 704 521 q 632 556 667 556 l 316 556 q 262 538 280 556 q 244 486 244 520 l 244 247 q 262 194 244 212 q 316 176 280 176 l 632 176 q 686 194 668 176 q 704 247 704 212 l 704 484 "},"5":{"x_min":86.8125,"x_max":980.03125,"ha":1042,"o":"m 980 247 q 974 194 980 222 q 955 139 968 166 q 924 86 943 111 q 877 42 904 61 q 813 11 849 23 q 733 0 777 0 l 86 0 l 86 176 l 733 176 q 784 196 766 176 q 802 247 802 217 l 802 326 q 784 379 802 360 q 731 397 767 397 l 334 397 q 218 422 265 397 q 142 484 171 446 q 100 564 113 521 q 86 645 86 608 l 86 972 l 899 972 l 899 796 l 263 796 l 263 645 q 281 592 263 610 q 334 575 299 575 l 733 575 q 813 561 769 575 q 893 519 856 548 q 955 442 930 489 q 980 326 980 394 l 980 247 "},"õ":{"x_min":67.828125,"x_max":880.328125,"ha":947,"o":"m 880 247 q 868 165 880 202 q 838 102 857 129 q 794 55 819 74 q 741 23 769 35 q 686 5 714 11 q 632 0 657 0 l 314 0 q 234 12 278 0 q 154 55 191 25 q 92 131 117 84 q 67 247 67 179 l 67 486 q 92 601 67 554 q 154 677 117 648 q 234 720 191 707 q 314 733 278 733 l 632 733 q 748 708 700 733 q 824 647 795 684 q 867 567 853 610 q 880 486 880 523 l 880 247 m 704 484 q 685 539 704 521 q 632 556 667 556 l 316 556 q 262 538 280 556 q 244 486 244 520 l 244 247 q 262 194 244 212 q 316 176 280 176 l 632 176 q 686 194 668 176 q 704 247 704 212 l 704 484 m 739 1065 q 726 955 739 1000 q 689 883 712 911 q 635 844 666 856 q 570 832 604 832 q 508 845 533 832 q 463 873 483 858 q 426 901 444 888 q 387 914 408 914 q 354 904 366 914 q 336 880 343 894 q 328 852 330 866 q 326 832 326 839 l 206 832 q 219 933 206 890 q 257 1007 233 977 q 311 1051 280 1036 q 376 1065 342 1065 q 432 1052 408 1065 q 475 1024 455 1040 q 515 996 496 1009 q 559 984 534 984 q 591 994 579 984 q 609 1017 603 1004 q 617 1044 615 1031 q 620 1065 619 1058 l 739 1065 "},"7":{"x_min":45.4375,"x_max":858.625,"ha":891,"o":"m 847 927 q 858 883 858 906 q 847 838 858 859 l 358 0 l 153 0 l 616 796 l 45 796 l 45 972 l 770 972 q 814 960 794 972 q 847 927 835 948 "},"K":{"x_min":103.765625,"x_max":1121.78125,"ha":1130,"o":"m 1121 0 l 871 0 l 474 397 l 350 397 l 350 575 l 474 575 l 871 972 l 1121 972 l 621 486 l 1121 0 m 280 0 l 103 0 l 103 972 l 280 972 l 280 0 "},",":{"x_min":31.203125,"x_max":260.4375,"ha":313,"o":"m 155 -124 l 31 -124 l 94 216 l 260 216 l 155 -124 "},"d":{"x_min":74.609375,"x_max":887.109375,"ha":973,"o":"m 887 247 q 875 165 887 202 q 845 102 864 129 q 800 55 826 74 q 748 23 775 35 q 692 5 720 11 q 639 0 664 0 l 321 0 q 240 11 276 0 q 176 42 204 23 q 129 86 149 61 q 98 139 110 111 q 80 194 86 166 q 74 247 74 223 l 74 486 q 99 601 74 554 q 161 677 124 648 q 241 720 198 707 q 321 733 284 733 l 639 733 l 639 556 l 322 556 q 269 538 287 556 q 250 486 250 520 l 250 248 q 268 194 250 212 q 321 176 286 176 l 639 176 q 693 194 675 176 q 710 247 710 212 l 710 1043 l 887 1043 l 887 247 "},"¨":{"x_min":142.421875,"x_max":631.421875,"ha":774,"o":"m 317 891 q 310 857 317 873 q 291 829 303 841 q 263 811 279 817 q 229 804 247 804 q 195 811 211 804 q 167 829 179 817 q 149 857 155 841 q 142 891 142 873 q 149 925 142 909 q 167 953 155 941 q 195 972 179 965 q 229 979 211 979 q 263 972 247 979 q 291 953 279 965 q 310 925 303 941 q 317 891 317 909 m 631 891 q 624 857 631 873 q 605 829 617 841 q 577 811 593 817 q 543 804 561 804 q 509 811 525 804 q 481 829 493 817 q 463 857 470 841 q 456 891 456 873 q 463 925 456 909 q 481 953 470 941 q 509 972 493 965 q 543 979 525 979 q 577 972 561 979 q 605 953 593 965 q 624 925 617 941 q 631 891 631 909 "},"Ô":{"x_min":71.890625,"x_max":1123.140625,"ha":1195,"o":"m 1123 393 q 1092 229 1123 304 q 1007 101 1062 155 q 879 16 953 46 q 717 -13 805 -13 l 478 -13 q 316 16 391 -13 q 187 101 242 46 q 102 229 133 155 q 71 393 71 304 l 71 579 q 102 742 71 667 q 187 871 133 817 q 316 955 242 925 q 478 986 391 986 l 717 986 q 879 955 805 986 q 1007 871 953 925 q 1092 742 1062 817 q 1123 579 1123 667 l 1123 393 m 946 579 q 930 673 946 631 q 883 746 913 716 q 810 793 853 776 q 717 809 768 809 l 478 809 q 384 793 427 809 q 311 746 342 776 q 264 673 281 716 q 248 579 248 631 l 248 393 q 264 298 248 341 q 311 226 281 256 q 384 179 342 196 q 478 162 427 162 l 716 162 q 810 179 767 162 q 883 226 852 196 q 930 298 913 256 q 946 393 946 341 l 946 579 m 833 1064 l 597 1186 l 361 1064 l 279 1178 l 597 1358 l 915 1178 l 833 1064 "},"E":{"x_min":98.34375,"x_max":981.390625,"ha":1049,"o":"m 902 397 l 345 397 l 345 575 l 902 575 l 902 397 m 981 0 l 345 0 q 265 12 308 0 q 184 55 221 25 q 123 131 147 84 q 98 247 98 179 l 98 883 q 105 918 98 902 q 123 946 111 934 q 151 965 135 959 q 187 972 168 972 l 981 972 l 981 796 l 274 796 l 274 247 q 292 194 274 212 q 346 176 311 176 l 981 176 l 981 0 "},"Y":{"x_min":56.296875,"x_max":1028.859375,"ha":1085,"o":"m 1028 647 q 1013 539 1028 586 q 973 455 998 491 q 914 393 948 419 q 845 350 881 367 q 772 326 809 334 q 702 319 735 319 l 631 319 l 631 0 l 453 0 l 453 319 l 383 319 q 313 326 350 319 q 240 350 276 334 q 170 393 204 367 q 112 455 137 419 q 71 539 86 491 q 56 647 56 587 l 56 972 l 232 972 l 232 647 q 243 584 232 612 q 274 537 254 557 q 321 507 293 518 q 384 497 349 497 l 702 497 q 754 507 727 501 q 802 529 780 514 q 838 573 824 545 q 852 647 852 600 l 852 972 l 1028 972 l 1028 647 "},"\"":{"x_min":65.109375,"x_max":467.296875,"ha":531,"o":"m 203 590 l 90 590 l 65 931 l 231 931 l 203 590 m 439 590 l 327 590 l 301 931 l 467 931 l 439 590 "},"‹":{"x_min":44.078125,"x_max":545.296875,"ha":606,"o":"m 545 645 l 229 362 l 543 88 l 316 88 l 71 302 q 44 362 44 326 q 50 395 44 379 q 70 422 57 411 l 320 645 l 545 645 "},"˙":{"x_min":299.78125,"x_max":474.75,"ha":774,"o":"m 474 891 q 467 857 474 873 q 448 829 460 841 q 420 811 436 817 q 387 804 404 804 q 353 811 368 804 q 325 829 337 817 q 306 857 313 841 q 299 891 299 873 q 306 925 299 909 q 325 953 313 941 q 353 972 337 965 q 387 979 368 979 q 420 972 404 979 q 448 953 436 965 q 467 925 460 941 q 474 891 474 909 "},"ê":{"x_min":67.828125,"x_max":871.515625,"ha":907,"o":"m 871 490 q 858 411 871 453 q 816 332 845 368 q 741 271 788 296 q 628 247 695 247 l 310 247 l 310 415 l 628 415 q 684 437 664 415 q 704 491 704 459 q 681 545 704 526 q 628 565 659 565 l 310 565 q 255 543 274 565 q 235 489 235 521 l 235 242 q 257 187 235 207 q 311 168 279 168 l 628 168 l 628 0 l 310 0 q 231 12 274 0 q 152 54 189 25 q 92 129 116 83 q 67 242 67 176 l 67 490 q 80 569 67 526 q 122 648 93 611 q 197 708 151 684 q 310 733 244 733 l 628 733 q 707 720 665 733 q 786 678 750 707 q 847 603 822 649 q 871 490 871 556 m 705 827 l 469 949 l 233 827 l 151 941 l 469 1121 l 787 941 l 705 827 "},"Ï":{"x_min":-51.578125,"x_max":437.421875,"ha":384,"o":"m 280 0 l 103 0 l 103 972 l 280 972 l 280 0 m 123 1169 q 116 1135 123 1151 q 97 1107 109 1119 q 69 1089 85 1095 q 35 1082 53 1082 q 1 1089 17 1082 q -26 1107 -14 1095 q -44 1135 -38 1119 q -51 1169 -51 1151 q -44 1203 -51 1187 q -26 1231 -38 1219 q 1 1250 -14 1243 q 35 1257 17 1257 q 69 1250 53 1257 q 97 1231 85 1243 q 116 1203 109 1219 q 123 1169 123 1187 m 437 1169 q 430 1135 437 1151 q 411 1107 423 1119 q 383 1089 399 1095 q 349 1082 367 1082 q 315 1089 331 1082 q 287 1107 299 1095 q 269 1135 276 1119 q 262 1169 262 1151 q 269 1203 262 1187 q 287 1231 276 1219 q 315 1250 299 1243 q 349 1257 331 1257 q 383 1250 367 1257 q 411 1231 399 1243 q 430 1203 423 1219 q 437 1169 437 1187 "},"„":{"x_min":31.203125,"x_max":510.703125,"ha":563,"o":"m 404 -124 l 281 -124 l 343 216 l 510 216 l 404 -124 m 155 -124 l 31 -124 l 94 216 l 260 216 l 155 -124 "},"Â":{"x_min":84.09375,"x_max":1056.671875,"ha":1159,"o":"m 1056 0 l 880 0 l 880 238 l 260 238 l 260 0 l 84 0 l 84 486 q 120 682 84 592 q 222 836 157 771 q 376 936 287 900 q 570 972 465 972 l 967 972 q 1002 965 986 972 q 1030 946 1018 959 q 1049 918 1043 934 q 1056 883 1056 902 l 1056 0 m 260 415 l 880 415 l 880 796 l 570 796 q 536 793 562 796 q 475 781 510 791 q 403 752 441 772 q 333 698 365 733 q 281 612 301 663 q 260 486 260 560 l 260 415 m 806 1064 l 570 1186 l 334 1064 l 252 1178 l 570 1358 l 888 1178 l 806 1064 "},"Í":{"x_min":103.765625,"x_max":545.921875,"ha":384,"o":"m 280 0 l 103 0 l 103 972 l 280 972 l 280 0 m 545 1190 l 191 1064 l 145 1165 l 471 1355 l 545 1190 "},"´":{"x_min":240.09375,"x_max":640.921875,"ha":774,"o":"m 640 912 l 286 786 l 240 887 l 566 1077 l 640 912 "},"ì":{"x_min":-179.0625,"x_max":261.796875,"ha":348,"o":"m 261 0 l 85 0 l 85 733 l 261 733 l 261 0 m -104 1118 l 222 928 l 174 827 l -179 953 l -104 1118 "},"±":{"x_min":85.453125,"x_max":721.625,"ha":807,"o":"m 721 406 l 482 406 l 482 251 l 324 251 l 324 406 l 85 406 l 85 565 l 324 565 l 324 720 l 482 720 l 482 565 l 721 565 l 721 406 m 721 0 l 85 0 l 85 158 l 721 158 l 721 0 "},"Ú":{"x_min":82.75,"x_max":1055.3125,"ha":1158,"o":"m 1055 88 q 1048 53 1055 69 q 1029 25 1041 37 q 1001 6 1017 13 q 966 0 984 0 l 569 0 q 455 12 512 0 q 343 49 397 24 q 242 114 289 75 q 159 207 194 153 q 103 331 123 261 q 82 486 82 400 l 82 972 l 259 972 l 259 486 q 279 360 259 411 q 332 274 300 308 q 402 219 364 239 q 474 190 440 200 q 534 178 508 181 q 569 176 560 176 l 878 176 l 878 972 l 1055 972 l 1055 88 m 913 1134 l 559 1008 l 513 1109 l 839 1299 l 913 1134 "},"|":{"x_min":92.234375,"x_max":269.25,"ha":362,"o":"m 269 -160 l 92 -160 l 92 1131 l 269 1131 l 269 -160 "},"§":{"x_min":80.03125,"x_max":1052.609375,"ha":1118,"o":"m 1052 126 q 1039 32 1052 73 q 1004 -41 1026 -9 q 953 -95 982 -73 q 893 -132 924 -118 q 829 -153 862 -146 q 769 -160 797 -160 l 88 -160 l 88 18 l 769 18 q 813 26 793 18 q 847 49 832 34 q 868 83 861 63 q 876 126 876 103 q 868 171 876 150 q 845 206 859 191 q 811 230 831 221 q 769 238 792 238 l 363 238 q 302 245 335 238 q 239 266 270 252 q 179 303 208 280 q 128 358 149 326 q 93 431 106 389 q 80 526 80 473 q 92 617 80 579 q 122 685 104 656 q 91 755 103 716 q 80 844 80 795 q 93 938 80 896 q 128 1011 106 980 q 179 1066 149 1043 q 239 1103 208 1089 q 302 1125 270 1118 q 363 1131 335 1131 l 963 1131 l 963 954 l 363 954 q 318 945 338 954 q 285 922 299 937 q 263 887 271 908 q 256 844 256 867 q 264 799 256 819 q 286 764 271 779 q 320 741 300 749 q 363 733 339 733 l 770 733 q 830 725 798 732 q 894 704 862 718 q 954 667 925 689 q 1004 612 982 644 q 1039 538 1026 580 q 1052 444 1052 496 q 1039 353 1052 392 q 1009 284 1026 314 q 1040 214 1028 252 q 1052 126 1052 175 m 363 556 q 315 561 340 556 q 263 575 289 565 q 258 553 259 565 q 256 526 256 541 q 264 480 256 501 q 286 445 271 460 q 320 423 300 431 q 363 415 339 415 l 770 415 q 818 409 793 413 q 868 396 843 405 q 874 417 872 405 q 876 444 876 428 q 868 489 876 468 q 845 524 859 510 q 811 548 831 539 q 769 556 792 556 l 363 556 "},"Ý":{"x_min":56.296875,"x_max":1028.859375,"ha":1085,"o":"m 1028 647 q 1013 539 1028 586 q 973 455 998 491 q 914 393 948 419 q 845 350 881 367 q 772 326 809 334 q 702 319 735 319 l 631 319 l 631 0 l 453 0 l 453 319 l 383 319 q 313 326 350 319 q 240 350 276 334 q 170 393 204 367 q 112 455 137 419 q 71 539 86 491 q 56 647 56 587 l 56 972 l 232 972 l 232 647 q 243 584 232 612 q 274 537 254 557 q 321 507 293 518 q 384 497 349 497 l 702 497 q 754 507 727 501 q 802 529 780 514 q 838 573 824 545 q 852 647 852 600 l 852 972 l 1028 972 l 1028 647 m 942 1092 l 588 966 l 542 1067 l 868 1257 l 942 1092 "},"b":{"x_min":78.671875,"x_max":891.1875,"ha":959,"o":"m 891 247 q 885 194 891 222 q 867 139 879 166 q 835 86 855 111 q 789 42 816 61 q 725 11 761 23 q 644 0 689 0 l 326 0 q 273 5 301 0 q 218 23 245 11 q 165 55 190 35 q 121 102 140 74 q 90 165 101 129 q 78 247 78 202 l 78 1043 l 255 1043 l 255 247 q 275 195 255 215 q 326 176 295 176 l 644 176 q 696 196 677 176 q 714 247 714 215 l 714 486 q 695 538 714 519 q 644 556 675 556 l 326 556 l 326 733 l 644 733 q 697 727 669 733 q 752 709 725 721 q 805 677 779 697 q 849 631 830 658 q 879 567 868 603 q 891 486 891 531 l 891 247 "},"q":{"x_min":67.828125,"x_max":880.328125,"ha":959,"o":"m 880 -229 l 704 -229 l 704 486 q 686 538 704 520 q 632 556 668 556 l 314 556 q 263 536 282 556 q 244 486 244 516 l 244 247 q 262 194 244 212 q 316 176 280 176 l 632 176 l 632 0 l 314 0 q 234 12 278 0 q 154 55 191 25 q 92 131 117 84 q 67 247 67 179 l 67 486 q 73 539 67 511 q 91 594 79 567 q 123 647 103 621 q 169 691 142 672 q 233 721 197 710 q 314 733 269 733 l 632 733 q 686 727 657 733 q 741 709 714 721 q 794 677 769 697 q 838 631 819 658 q 868 567 857 603 q 880 486 880 531 l 880 -229 "},"Ö":{"x_min":71.890625,"x_max":1123.140625,"ha":1195,"o":"m 1123 393 q 1092 229 1123 304 q 1007 101 1062 155 q 879 16 953 46 q 717 -13 805 -13 l 478 -13 q 316 16 391 -13 q 187 101 242 46 q 102 229 133 155 q 71 393 71 304 l 71 579 q 102 742 71 667 q 187 871 133 817 q 316 955 242 925 q 478 986 391 986 l 717 986 q 879 955 805 986 q 1007 871 953 925 q 1092 742 1062 817 q 1123 579 1123 667 l 1123 393 m 946 579 q 930 673 946 631 q 883 746 913 716 q 810 793 853 776 q 717 809 768 809 l 478 809 q 384 793 427 809 q 311 746 342 776 q 264 673 281 716 q 248 579 248 631 l 248 393 q 264 298 248 341 q 311 226 281 256 q 384 179 342 196 q 478 162 427 162 l 716 162 q 810 179 767 162 q 883 226 852 196 q 930 298 913 256 q 946 393 946 341 l 946 579 m 527 1169 q 520 1135 527 1151 q 501 1107 513 1119 q 473 1089 489 1095 q 439 1082 457 1082 q 405 1089 421 1082 q 377 1107 389 1095 q 359 1135 365 1119 q 352 1169 352 1151 q 359 1203 352 1187 q 377 1231 365 1219 q 405 1250 389 1243 q 439 1257 421 1257 q 473 1250 457 1257 q 501 1231 489 1243 q 520 1203 513 1219 q 527 1169 527 1187 m 841 1169 q 834 1135 841 1151 q 815 1107 827 1119 q 787 1089 803 1095 q 753 1082 771 1082 q 719 1089 735 1082 q 691 1107 703 1095 q 673 1135 680 1119 q 666 1169 666 1151 q 673 1203 666 1187 q 691 1231 680 1219 q 719 1250 703 1243 q 753 1257 735 1257 q 787 1250 771 1257 q 815 1231 803 1243 q 834 1203 827 1219 q 841 1169 841 1187 "},"ﬂ":{"x_min":85.453125,"x_max":1128.5625,"ha":1159,"o":"m 1128 0 l 1049 0 q 968 12 1011 0 q 888 55 925 25 q 826 131 851 84 q 802 247 802 179 l 802 874 l 334 874 q 280 856 298 874 q 261 804 261 838 l 261 0 l 85 0 l 85 804 q 96 885 85 849 q 127 949 108 921 q 172 995 147 976 q 224 1027 197 1015 q 280 1045 252 1039 q 333 1051 307 1051 l 980 1051 l 978 247 q 999 195 978 215 q 1049 176 1019 176 l 1128 176 l 1128 0 m 634 556 l 333 556 l 333 733 l 634 733 l 634 556 "},"z":{"x_min":50.859375,"x_max":784.625,"ha":835,"o":"m 777 678 q 783 628 788 653 q 759 583 777 602 l 352 176 l 775 176 l 775 0 l 139 0 q 90 15 112 0 q 57 54 68 30 q 52 105 47 79 q 77 151 57 131 l 482 556 l 59 556 l 59 733 l 696 733 q 745 718 722 733 q 777 678 767 704 "},"™":{"x_min":78.671875,"x_max":1024.796875,"ha":1116,"o":"m 1024 573 l 928 573 l 928 772 l 820 590 l 820 591 q 778 568 807 568 q 755 574 767 568 q 738 591 744 579 l 738 590 l 628 772 l 628 573 l 535 573 l 535 931 q 544 961 535 948 q 569 978 553 973 q 599 976 584 982 q 623 956 613 970 l 778 710 l 935 956 q 960 976 945 970 q 990 978 974 982 q 1015 961 1005 973 q 1024 931 1024 948 l 1024 573 m 472 878 l 322 878 l 322 573 l 227 573 l 227 878 l 78 878 l 78 973 l 472 973 l 472 878 "},"ã":{"x_min":35.953125,"x_max":839.640625,"ha":907,"o":"m 839 242 q 826 163 839 206 q 785 85 813 121 q 709 24 756 48 q 596 0 663 0 l 278 0 q 199 12 242 0 q 121 54 157 25 q 60 129 84 83 q 35 242 35 176 q 48 322 35 279 q 90 401 61 364 q 165 461 119 437 q 278 486 212 486 l 596 486 l 596 318 l 278 318 q 223 296 242 318 q 203 241 203 274 q 226 187 203 206 q 280 168 248 168 l 596 168 q 652 189 632 168 q 672 244 672 211 l 672 490 q 650 545 672 524 q 596 565 629 565 l 209 565 l 209 733 l 596 733 q 675 720 633 733 q 754 678 718 707 q 815 603 790 649 q 839 490 839 556 l 839 242 m 703 1065 q 690 955 703 1000 q 653 883 676 911 q 599 844 630 856 q 534 832 568 832 q 472 845 497 832 q 427 873 447 858 q 390 901 408 888 q 351 914 372 914 q 318 904 330 914 q 300 880 307 894 q 292 852 294 866 q 290 832 290 839 l 170 832 q 183 933 170 890 q 221 1007 197 977 q 275 1051 244 1036 q 340 1065 306 1065 q 396 1052 372 1065 q 439 1024 419 1040 q 479 996 460 1009 q 523 984 498 984 q 555 994 543 984 q 573 1017 567 1004 q 581 1044 579 1031 q 584 1065 583 1058 l 703 1065 "},"æ":{"x_min":35.953125,"x_max":1475.8125,"ha":1513,"o":"m 1475 490 q 1462 411 1475 453 q 1421 332 1450 368 q 1345 271 1392 296 q 1233 247 1299 247 l 914 247 l 914 415 l 1233 415 q 1288 437 1268 415 q 1307 491 1307 459 q 1285 545 1307 526 q 1233 565 1264 565 l 914 565 q 859 543 878 565 q 839 490 839 521 l 839 242 l 839 236 q 863 185 841 203 q 916 168 885 168 l 1233 168 l 1233 0 l 914 0 q 835 13 878 0 q 756 55 792 26 q 688 15 727 30 q 596 0 649 0 l 278 0 q 199 12 242 0 q 121 54 157 25 q 60 129 84 83 q 35 242 35 176 q 48 322 35 279 q 90 401 61 364 q 165 461 119 437 q 278 486 212 486 l 596 486 l 596 318 l 278 318 q 223 296 242 318 q 203 241 203 274 q 226 187 203 206 q 280 168 248 168 l 596 168 q 652 189 632 168 q 672 244 672 211 l 672 490 q 650 545 672 524 q 596 565 629 565 l 209 565 l 209 733 l 596 733 q 675 720 633 733 q 754 677 718 707 q 823 718 783 703 q 914 733 862 733 l 1233 733 q 1312 720 1269 733 q 1390 678 1354 707 q 1451 603 1426 649 q 1475 490 1475 556 "},"®":{"x_min":84.09375,"x_max":889.828125,"ha":974,"o":"m 889 422 q 874 315 889 361 q 833 234 859 268 q 776 177 808 200 q 709 140 744 154 q 642 121 675 126 q 582 115 609 115 l 391 115 q 331 121 364 115 q 264 140 299 126 q 198 177 230 154 q 140 234 165 200 q 99 315 114 268 q 84 422 84 361 l 84 550 q 99 656 84 610 q 140 737 114 703 q 198 794 165 771 q 264 831 230 817 q 331 851 299 845 q 391 857 364 857 l 582 857 q 642 851 609 857 q 709 831 675 845 q 776 794 744 817 q 834 737 809 771 q 874 656 859 703 q 889 550 889 610 l 889 422 m 702 552 q 693 495 702 520 q 669 454 684 471 q 634 425 653 436 q 595 409 615 415 l 738 287 q 771 342 758 309 q 784 422 784 375 l 784 550 q 685 725 784 675 q 648 739 666 734 q 615 747 630 744 q 582 751 597 750 l 391 751 q 369 750 386 751 q 330 742 352 748 q 283 724 307 736 q 237 689 258 711 q 203 632 217 666 q 189 550 189 598 l 189 422 q 203 339 189 373 q 237 283 217 305 q 283 248 258 261 q 330 229 307 236 q 370 222 353 223 q 392 221 387 221 l 582 221 q 604 222 588 221 q 642 229 620 223 l 441 404 l 423 404 l 423 511 l 554 511 q 596 552 596 511 l 596 596 l 384 596 l 384 298 l 278 298 l 278 648 q 294 685 278 670 q 331 701 309 701 l 599 701 q 643 692 624 701 q 675 668 662 682 q 695 635 689 653 q 702 598 702 617 l 702 552 "},"É":{"x_min":98.34375,"x_max":981.390625,"ha":1049,"o":"m 902 397 l 345 397 l 345 575 l 902 575 l 902 397 m 981 0 l 345 0 q 265 12 308 0 q 184 55 221 25 q 123 131 147 84 q 98 247 98 179 l 98 883 q 105 918 98 902 q 123 946 111 934 q 151 965 135 959 q 187 972 168 972 l 981 972 l 981 796 l 274 796 l 274 247 q 292 194 274 212 q 346 176 311 176 l 981 176 l 981 0 m 954 1190 l 600 1064 l 554 1165 l 880 1355 l 954 1190 "},"~":{"x_min":74.609375,"x_max":806.40625,"ha":880,"o":"m 806 411 q 772 384 792 396 q 729 363 752 372 q 679 348 705 354 q 626 343 653 343 q 536 354 583 343 q 438 379 488 366 q 340 404 389 393 q 248 416 291 416 q 199 409 224 416 q 150 392 174 402 q 107 367 127 381 q 74 340 87 354 l 74 518 q 109 545 88 532 q 155 567 130 558 q 205 581 179 576 q 253 587 230 587 q 343 575 295 587 q 441 550 392 564 q 540 524 491 535 q 632 512 589 512 q 680 519 655 512 q 729 537 706 526 q 772 562 752 548 q 806 590 792 575 l 806 411 "},"³":{"x_min":84.09375,"x_max":465.9375,"ha":536,"o":"m 424 581 l 84 581 l 84 705 l 424 705 l 424 581 m 465 547 q 454 493 465 516 q 425 453 443 469 q 385 429 407 437 q 339 421 362 421 l 84 421 l 84 544 l 342 544 l 342 743 l 84 743 l 84 866 l 339 866 q 394 855 370 866 q 433 826 417 844 q 457 786 449 808 q 465 740 465 763 l 465 547 "},"¡":{"x_min":70.53125,"x_max":274.6875,"ha":347,"o":"m 111 457 l 232 457 l 274 -276 l 70 -276 l 111 457 m 84 607 q 91 641 84 625 q 110 669 98 657 q 138 687 122 680 q 171 694 153 694 q 205 687 189 694 q 233 669 221 680 q 252 641 245 657 q 259 607 259 625 q 252 573 259 589 q 233 545 245 557 q 205 526 221 533 q 171 519 189 519 q 138 526 153 519 q 110 545 122 533 q 91 573 98 557 q 84 607 84 589 "},"[":{"x_min":90.875,"x_max":459.15625,"ha":507,"o":"m 459 952 l 270 952 l 267 18 l 456 18 l 456 -160 l 180 -160 q 146 -152 162 -160 q 117 -133 130 -145 q 98 -104 105 -120 q 90 -70 90 -88 l 90 1041 q 98 1076 90 1060 q 118 1103 105 1091 q 146 1122 130 1115 q 181 1129 163 1129 l 459 1129 l 459 952 "},"L":{"x_min":102.40625,"x_max":995.625,"ha":1023,"o":"m 995 0 l 191 0 q 155 6 172 0 q 127 25 139 13 q 109 53 115 37 q 102 88 102 69 l 102 972 l 278 972 l 278 176 l 995 176 l 995 0 "}," ":{"x_min":0,"x_max":0,"ha":452},"%":{"x_min":53.578125,"x_max":1149.59375,"ha":1203,"o":"m 1149 247 q 1131 158 1149 200 q 1082 85 1113 116 q 1009 36 1051 54 q 920 18 967 18 q 830 36 872 18 q 757 85 788 54 q 707 158 725 116 q 689 247 689 200 q 707 336 689 295 q 757 409 725 378 q 830 459 788 441 q 920 478 872 478 q 1009 459 967 478 q 1082 409 1051 441 q 1131 336 1113 378 q 1149 247 1149 295 m 927 883 l 427 8 l 264 8 l 765 883 l 927 883 m 513 645 q 495 555 513 597 q 445 482 477 514 q 372 433 414 451 q 282 415 330 415 q 193 433 235 415 q 120 482 151 451 q 71 555 89 514 q 53 645 53 597 q 71 734 53 693 q 120 807 89 776 q 193 856 151 838 q 282 874 235 874 q 372 856 330 874 q 445 807 414 838 q 495 734 477 776 q 513 645 513 693 m 1007 247 q 1001 281 1007 265 q 982 309 994 297 q 954 329 970 322 q 920 336 938 336 q 885 329 902 336 q 857 309 869 322 q 838 281 845 297 q 831 247 831 265 q 838 213 831 229 q 857 185 845 197 q 885 166 869 173 q 920 160 902 160 q 954 166 938 160 q 982 185 970 173 q 1001 213 994 197 q 1007 247 1007 229 m 371 645 q 364 679 371 663 q 346 707 358 695 q 318 726 334 719 q 282 733 301 733 q 248 726 264 733 q 220 707 232 719 q 202 679 208 695 q 195 645 195 663 q 202 611 195 627 q 220 582 208 594 q 248 563 232 570 q 282 556 264 556 q 318 563 301 556 q 346 582 334 570 q 364 611 358 594 q 371 645 371 627 "},"P":{"x_min":99.703125,"x_max":1071.59375,"ha":1120,"o":"m 1071 565 q 1056 457 1071 505 q 1016 374 1041 410 q 957 311 990 337 q 888 269 924 286 q 814 246 851 253 q 745 238 777 238 l 346 238 l 346 415 l 745 415 q 806 428 779 417 q 853 459 834 440 q 884 504 873 478 q 895 565 895 531 l 895 645 q 881 706 891 678 q 851 754 870 734 q 806 785 832 773 q 745 796 779 796 l 347 796 q 294 777 312 796 q 276 725 276 759 l 276 0 l 99 0 l 99 725 q 124 840 99 792 q 186 916 149 887 q 266 959 223 946 q 346 972 309 972 l 745 972 q 852 957 805 972 q 936 916 900 942 q 998 857 972 891 q 1040 788 1023 824 q 1064 715 1056 752 q 1071 645 1071 678 l 1071 565 "},"À":{"x_min":84.09375,"x_max":1056.671875,"ha":1159,"o":"m 1056 0 l 880 0 l 880 238 l 260 238 l 260 0 l 84 0 l 84 486 q 120 682 84 592 q 222 836 157 771 q 376 936 287 900 q 570 972 465 972 l 967 972 q 1002 965 986 972 q 1030 946 1018 959 q 1049 918 1043 934 q 1056 883 1056 902 l 1056 0 m 260 415 l 880 415 l 880 796 l 570 796 q 536 793 562 796 q 475 781 510 791 q 403 752 441 772 q 333 698 365 733 q 281 612 301 663 q 260 486 260 560 l 260 415 m 324 1355 l 651 1165 l 603 1064 l 249 1190 l 324 1355 "},"_":{"x_min":85.453125,"x_max":860.671875,"ha":946,"o":"m 860 -238 l 85 -238 l 85 -80 l 860 -80 l 860 -238 "},"ñ":{"x_min":82.75,"x_max":895.25,"ha":967,"o":"m 895 0 l 718 0 l 718 406 q 707 468 718 441 q 674 516 695 496 q 627 546 654 535 q 567 556 599 556 l 259 556 l 259 0 l 82 0 l 82 645 q 89 679 82 663 q 108 707 96 695 q 137 726 120 719 q 171 733 153 733 l 569 733 q 639 725 602 733 q 712 701 676 718 q 781 659 748 685 q 839 597 814 634 q 880 514 865 561 q 895 406 895 466 l 895 0 m 755 1065 q 742 955 755 1000 q 705 883 728 911 q 651 844 682 856 q 586 832 620 832 q 524 845 549 832 q 479 873 499 858 q 442 901 460 888 q 403 914 424 914 q 370 904 382 914 q 352 880 359 894 q 344 852 346 866 q 342 832 342 839 l 222 832 q 235 933 222 890 q 273 1007 249 977 q 327 1051 296 1036 q 392 1065 358 1065 q 448 1052 424 1065 q 491 1024 471 1040 q 531 996 512 1009 q 575 984 550 984 q 607 994 595 984 q 625 1017 619 1004 q 633 1044 631 1031 q 636 1065 635 1058 l 755 1065 "},"+":{"x_min":56.296875,"x_max":692.46875,"ha":749,"o":"m 692 406 l 453 406 l 453 168 l 295 168 l 295 406 l 56 406 l 56 565 l 295 565 l 295 804 l 453 804 l 453 565 l 692 565 l 692 406 "},"‚":{"x_min":31.203125,"x_max":260.4375,"ha":313,"o":"m 155 -124 l 31 -124 l 94 216 l 260 216 l 155 -124 "},"½":{"x_min":65.109375,"x_max":988.171875,"ha":1052,"o":"m 757 883 l 257 8 l 95 8 l 595 883 l 757 883 m 252 421 l 128 421 l 128 743 l 65 743 l 65 866 l 252 866 l 252 421 m 988 25 l 574 25 l 574 183 q 582 228 574 206 q 607 269 590 251 q 647 298 623 287 q 701 309 670 309 l 864 309 l 864 347 l 606 347 l 606 470 l 862 470 q 916 459 892 470 q 955 430 940 448 q 980 389 971 412 q 988 344 988 367 l 988 312 q 976 258 988 282 q 947 218 965 234 q 907 193 929 202 q 862 185 885 185 l 697 185 l 697 148 l 988 148 l 988 25 "},"Æ":{"x_min":84.09375,"x_max":1763.375,"ha":1831,"o":"m 1763 0 l 1127 0 q 1075 5 1102 0 q 1020 22 1047 10 q 968 53 993 34 q 924 98 944 71 q 893 159 905 124 q 880 238 881 194 l 260 238 l 260 0 l 84 0 l 84 486 q 120 682 84 592 q 222 836 157 771 q 376 936 287 900 q 570 972 465 972 l 967 972 l 974 972 l 1763 972 l 1763 796 l 1056 796 l 1056 247 q 1074 194 1056 212 q 1128 176 1093 176 l 1763 176 l 1763 0 m 260 415 l 880 415 l 880 796 l 570 796 q 536 793 562 796 q 475 781 510 791 q 403 752 441 772 q 333 698 365 733 q 281 612 301 663 q 260 486 260 560 l 260 415 m 1684 397 l 1127 397 l 1127 575 l 1684 575 l 1684 397 "},"Ë":{"x_min":98.34375,"x_max":981.390625,"ha":1049,"o":"m 902 397 l 345 397 l 345 575 l 902 575 l 902 397 m 981 0 l 345 0 q 265 12 308 0 q 184 55 221 25 q 123 131 147 84 q 98 247 98 179 l 98 883 q 105 918 98 902 q 123 946 111 934 q 151 965 135 959 q 187 972 168 972 l 981 972 l 981 796 l 274 796 l 274 247 q 292 194 274 212 q 346 176 311 176 l 981 176 l 981 0 m 512 1169 q 505 1135 512 1151 q 486 1107 498 1119 q 458 1089 474 1095 q 424 1082 442 1082 q 390 1089 406 1082 q 362 1107 374 1095 q 344 1135 350 1119 q 337 1169 337 1151 q 344 1203 337 1187 q 362 1231 350 1219 q 390 1250 374 1243 q 424 1257 406 1257 q 458 1250 442 1257 q 486 1231 474 1243 q 505 1203 498 1219 q 512 1169 512 1187 m 826 1169 q 819 1135 826 1151 q 800 1107 812 1119 q 772 1089 788 1095 q 738 1082 756 1082 q 704 1089 720 1082 q 676 1107 688 1095 q 658 1135 665 1119 q 651 1169 651 1151 q 658 1203 651 1187 q 676 1231 665 1219 q 704 1250 688 1243 q 738 1257 720 1257 q 772 1250 756 1257 q 800 1231 788 1243 q 819 1203 812 1219 q 826 1169 826 1187 "},"'":{"x_min":65.109375,"x_max":231.28125,"ha":295,"o":"m 203 590 l 90 590 l 65 931 l 231 931 l 203 590 "},"ª":{"x_min":69.171875,"x_max":756.21875,"ha":837,"o":"m 756 560 q 751 516 756 539 q 736 470 746 493 q 709 426 725 447 q 670 389 693 405 q 616 363 647 373 q 548 354 586 354 l 276 354 q 208 364 244 354 q 141 400 172 375 q 89 464 110 424 q 69 560 69 503 q 80 628 69 592 q 115 695 91 664 q 179 747 140 727 q 276 768 219 768 l 548 768 l 548 626 l 276 626 q 243 620 256 626 q 223 604 230 614 q 213 582 216 594 q 210 559 210 571 q 229 511 210 529 q 276 494 247 494 l 548 494 q 580 500 567 494 q 601 516 593 506 q 612 537 609 525 q 615 560 615 549 l 615 765 q 595 813 615 796 q 548 830 576 830 l 206 830 l 206 972 l 548 972 q 615 961 579 972 q 683 925 652 950 q 735 861 714 901 q 756 765 756 822 l 756 560 "},"˛":{"x_min":174.296875,"x_max":541.21875,"ha":701,"o":"m 408 12 q 343 -55 367 -18 q 318 -126 318 -92 q 336 -162 318 -151 q 392 -172 354 -172 q 430 -168 409 -172 q 471 -160 451 -165 q 510 -148 491 -154 q 541 -137 529 -143 l 541 -263 q 511 -272 529 -267 q 471 -282 494 -278 q 417 -290 447 -287 q 350 -294 387 -294 q 282 -287 314 -294 q 226 -265 250 -280 q 188 -226 202 -250 q 174 -166 174 -202 q 179 -122 174 -147 q 197 -72 185 -97 q 229 -25 209 -48 q 280 12 250 -3 l 408 12 "},"ð":{"x_min":67.828125,"x_max":1058.03125,"ha":959,"o":"m 880 247 q 868 165 880 202 q 838 102 857 129 q 794 55 819 74 q 741 23 769 35 q 686 5 714 11 q 632 0 657 0 l 314 0 q 233 11 269 0 q 169 42 197 23 q 123 86 142 61 q 91 139 103 111 q 73 194 79 166 q 67 247 67 223 l 67 486 q 92 601 67 554 q 154 677 117 648 q 234 720 191 707 q 314 733 278 733 l 632 733 l 632 556 l 316 556 q 262 538 280 556 q 244 486 244 520 l 244 248 q 262 194 244 212 q 314 176 280 176 l 632 176 q 686 194 668 176 q 704 247 704 212 l 704 804 q 693 865 704 838 q 664 912 683 893 q 616 943 644 932 q 553 954 588 954 l 464 954 l 464 1131 l 553 1131 q 646 1120 604 1131 q 722 1090 689 1109 q 781 1044 756 1070 q 826 988 807 1018 l 986 1069 l 1058 927 l 877 837 q 879 820 878 829 q 880 804 880 812 l 880 247 "},"T":{"x_min":27.125,"x_max":981.390625,"ha":1009,"o":"m 981 796 l 592 796 l 592 0 l 416 0 l 416 796 l 27 796 l 27 972 l 981 972 l 981 796 "},"Þ":{"x_min":103.765625,"x_max":1075.65625,"ha":1127,"o":"m 280 837 q 316 845 297 843 q 350 848 334 848 l 749 848 q 856 833 809 848 q 940 793 904 818 q 1002 734 976 767 q 1044 664 1027 701 q 1068 591 1060 628 q 1075 520 1075 554 l 1075 441 q 1060 333 1075 381 q 1020 250 1045 286 q 961 188 994 214 q 892 146 928 162 q 818 122 855 130 q 749 115 781 115 l 350 115 l 350 291 l 749 291 q 810 305 783 294 q 857 335 838 316 q 888 380 877 354 q 899 441 899 407 l 899 520 q 888 581 899 554 q 858 629 878 609 q 811 660 839 649 q 749 672 784 672 l 352 672 q 299 654 317 672 q 280 607 281 637 l 280 -70 l 103 -70 l 103 1051 l 280 1051 l 280 837 "},"j":{"x_min":-303.171875,"x_max":261.796875,"ha":348,"o":"m 261 883 l 85 883 l 85 1043 l 261 1043 l 261 883 m 261 -70 q 250 -152 261 -115 q 219 -216 238 -188 q 175 -262 200 -243 q 123 -294 150 -282 q 67 -312 95 -306 q 14 -318 40 -318 l -303 -318 l -303 -141 l 14 -141 q 67 -123 50 -141 q 85 -70 85 -105 l 85 733 l 261 733 l 261 -70 "},"1":{"x_min":48.15625,"x_max":384.546875,"ha":492,"o":"m 384 0 l 207 0 l 207 796 l 48 796 l 48 972 l 384 972 l 384 0 "},"›":{"x_min":60.359375,"x_max":562.25,"ha":606,"o":"m 285 645 l 535 422 q 555 395 548 411 q 562 362 562 379 q 534 302 562 326 l 289 88 l 61 88 l 375 362 l 60 645 l 285 645 "},"ä":{"x_min":35.953125,"x_max":839.640625,"ha":907,"o":"m 839 242 q 826 163 839 206 q 785 85 813 121 q 709 24 756 48 q 596 0 663 0 l 278 0 q 199 12 242 0 q 121 54 157 25 q 60 129 84 83 q 35 242 35 176 q 48 322 35 279 q 90 401 61 364 q 165 461 119 437 q 278 486 212 486 l 596 486 l 596 318 l 278 318 q 223 296 242 318 q 203 241 203 274 q 226 187 203 206 q 280 168 248 168 l 596 168 q 652 189 632 168 q 672 244 672 211 l 672 490 q 650 545 672 524 q 596 565 629 565 l 209 565 l 209 733 l 596 733 q 675 720 633 733 q 754 678 718 707 q 815 603 790 649 q 839 490 839 556 l 839 242 m 367 932 q 360 898 367 914 q 341 870 353 882 q 313 852 329 858 q 279 845 297 845 q 245 852 261 845 q 217 870 229 858 q 199 898 205 882 q 192 932 192 914 q 199 966 192 950 q 217 994 205 982 q 245 1013 229 1006 q 279 1020 261 1020 q 313 1013 297 1020 q 341 994 329 1006 q 360 966 353 982 q 367 932 367 950 m 681 932 q 674 898 681 914 q 655 870 667 882 q 627 852 643 858 q 593 845 611 845 q 559 852 575 845 q 531 870 543 858 q 513 898 520 882 q 506 932 506 914 q 513 966 506 950 q 531 994 520 982 q 559 1013 543 1006 q 593 1020 575 1020 q 627 1013 611 1020 q 655 994 643 1006 q 674 966 667 982 q 681 932 681 950 "},"<":{"x_min":48.15625,"x_max":660.59375,"ha":730,"o":"m 660 849 l 256 487 l 660 133 l 406 133 l 78 421 q 48 487 48 446 q 55 523 48 506 q 77 552 63 540 l 408 849 l 660 849 "},"£":{"x_min":50.859375,"x_max":1167.90625,"ha":1221,"o":"m 684 404 l 455 404 l 455 176 l 920 176 q 973 194 956 176 q 991 245 991 212 l 991 335 l 1167 335 l 1167 245 q 1143 130 1167 177 q 1082 54 1119 84 q 1002 12 1045 25 q 921 0 959 0 l 367 0 q 333 6 349 0 q 305 25 317 13 q 286 53 293 37 q 280 87 280 69 l 280 404 l 50 404 l 50 562 l 280 562 l 280 726 q 292 806 280 763 q 335 886 305 849 q 411 948 364 923 q 525 972 457 972 l 851 972 l 851 796 l 525 796 q 474 776 493 796 q 455 726 455 756 l 455 562 l 684 562 l 684 404 "},"¹":{"x_min":59,"x_max":246.875,"ha":332,"o":"m 246 421 l 123 421 l 123 743 l 59 743 l 59 866 l 246 866 l 246 421 "},"t":{"x_min":33.90625,"x_max":749.4375,"ha":783,"o":"m 749 556 l 441 556 l 441 0 l 263 0 l 263 556 l 33 556 l 33 733 l 263 733 l 263 972 l 441 972 l 441 733 l 749 733 l 749 556 "},"¬":{"x_min":71.890625,"x_max":708.0625,"ha":803,"o":"m 708 168 l 549 168 l 549 406 l 71 406 l 71 565 l 708 565 l 708 168 "},"ù":{"x_min":71.890625,"x_max":884.40625,"ha":967,"o":"m 884 88 q 877 53 884 69 q 858 25 870 37 q 831 6 847 13 q 796 0 815 0 l 398 0 q 328 7 365 0 q 255 31 291 14 q 186 73 219 48 q 127 135 152 99 q 87 219 102 171 q 71 326 71 266 l 71 733 l 248 733 l 248 326 q 260 264 248 291 q 292 217 271 236 q 340 186 312 197 q 399 176 367 176 l 708 176 l 708 733 l 884 733 l 884 88 m 192 1077 l 519 887 l 471 786 l 117 912 l 192 1077 "},"W":{"x_min":48.15625,"x_max":1344.234375,"ha":1392,"o":"m 1344 972 l 1181 61 q 1157 14 1176 33 q 1110 -10 1138 -5 q 1058 -4 1083 -15 q 1019 29 1033 6 l 696 559 l 373 29 q 341 -1 361 9 q 298 -12 321 -12 q 242 8 266 -12 q 212 61 217 28 l 48 972 l 227 972 l 343 330 l 621 773 q 653 804 633 793 q 696 815 673 815 q 739 804 719 815 q 771 773 758 793 l 1048 330 l 1165 972 l 1344 972 "},"ï":{"x_min":-69.578125,"x_max":419.421875,"ha":348,"o":"m 261 0 l 85 0 l 85 733 l 261 733 l 261 0 m 105 932 q 98 898 105 914 q 79 870 91 882 q 51 852 67 858 q 17 845 35 845 q -16 852 0 845 q -44 870 -32 858 q -62 898 -56 882 q -69 932 -69 914 q -62 966 -69 950 q -44 994 -56 982 q -16 1013 -32 1006 q 17 1020 0 1020 q 51 1013 35 1020 q 79 994 67 1006 q 98 966 91 982 q 105 932 105 950 m 419 932 q 412 898 419 914 q 393 870 405 882 q 365 852 381 858 q 331 845 349 845 q 297 852 313 845 q 269 870 281 858 q 251 898 258 882 q 244 932 244 914 q 251 966 244 950 q 269 994 258 982 q 297 1013 281 1006 q 331 1020 313 1020 q 365 1013 349 1020 q 393 994 381 1006 q 412 966 405 982 q 419 932 419 950 "},">":{"x_min":69.171875,"x_max":681.609375,"ha":730,"o":"m 320 849 l 652 552 q 673 523 666 540 q 681 487 681 506 q 673 450 681 467 q 651 421 665 433 l 322 133 l 69 133 l 473 487 l 69 849 l 320 849 "},"v":{"x_min":82.75,"x_max":957.65625,"ha":938,"o":"m 957 733 q 887 550 927 640 q 795 378 847 459 q 679 226 744 296 q 538 106 615 157 q 369 27 460 56 q 171 -1 278 -1 q 137 5 153 -1 q 108 24 120 12 q 89 51 96 35 q 82 86 82 67 l 82 733 l 259 733 l 259 181 q 382 209 323 181 q 495 283 442 237 q 593 387 548 328 q 673 506 638 445 q 733 627 708 568 q 770 733 758 686 l 957 733 "},"û":{"x_min":71.890625,"x_max":884.40625,"ha":967,"o":"m 884 88 q 877 53 884 69 q 858 25 870 37 q 831 6 847 13 q 796 0 815 0 l 398 0 q 328 7 365 0 q 255 31 291 14 q 186 73 219 48 q 127 135 152 99 q 87 219 102 171 q 71 326 71 266 l 71 733 l 248 733 l 248 326 q 260 264 248 291 q 292 217 271 236 q 340 186 312 197 q 399 176 367 176 l 708 176 l 708 733 l 884 733 l 884 88 m 713 827 l 477 949 l 241 827 l 159 941 l 477 1121 l 795 941 l 713 827 "},"Ò":{"x_min":71.890625,"x_max":1123.140625,"ha":1195,"o":"m 1123 393 q 1092 229 1123 304 q 1007 101 1062 155 q 879 16 953 46 q 717 -13 805 -13 l 478 -13 q 316 16 391 -13 q 187 101 242 46 q 102 229 133 155 q 71 393 71 304 l 71 579 q 102 742 71 667 q 187 871 133 817 q 316 955 242 925 q 478 986 391 986 l 717 986 q 879 955 805 986 q 1007 871 953 925 q 1092 742 1062 817 q 1123 579 1123 667 l 1123 393 m 946 579 q 930 673 946 631 q 883 746 913 716 q 810 793 853 776 q 717 809 768 809 l 478 809 q 384 793 427 809 q 311 746 342 776 q 264 673 281 716 q 248 579 248 631 l 248 393 q 264 298 248 341 q 311 226 281 256 q 384 179 342 196 q 478 162 427 162 l 716 162 q 810 179 767 162 q 883 226 852 196 q 930 298 913 256 q 946 393 946 341 l 946 579 m 311 1355 l 638 1165 l 590 1064 l 236 1190 l 311 1355 "},"&":{"x_min":84.09375,"x_max":880.328125,"ha":933,"o":"m 880 247 l 800 247 l 799 245 q 788 167 799 202 q 758 106 777 132 q 716 61 740 80 q 665 30 691 42 q 612 13 639 18 q 562 8 585 8 l 322 8 q 215 31 259 8 q 142 90 170 55 q 99 167 113 126 q 84 244 85 208 l 84 326 q 99 418 84 379 q 139 486 114 457 q 97 565 110 522 q 84 645 84 608 q 107 756 84 711 q 167 830 131 802 q 245 871 203 858 q 322 883 286 883 l 720 883 l 720 725 l 322 725 q 289 719 304 725 q 264 702 275 713 q 248 677 254 691 q 244 645 243 662 q 265 586 244 607 q 322 565 287 565 l 562 565 l 562 406 l 322 406 q 264 383 285 406 q 244 326 244 360 l 244 250 q 266 190 244 213 q 322 168 288 168 l 560 168 q 619 190 598 168 q 640 247 640 212 q 651 305 640 276 q 681 356 661 333 q 731 393 701 379 q 799 406 760 406 l 880 406 l 880 247 "},"˝":{"x_min":152.59375,"x_max":738.578125,"ha":774,"o":"m 446 912 l 189 786 l 152 848 l 370 1043 l 446 912 m 738 912 l 481 786 l 446 848 l 661 1043 l 738 912 "},"Ð":{"x_min":29.84375,"x_max":1231.65625,"ha":1302,"o":"m 1231 406 q 1199 243 1231 318 q 1111 114 1167 168 q 982 30 1056 61 q 826 0 908 0 l 347 0 q 313 6 329 0 q 285 25 297 13 q 266 53 273 37 q 259 88 259 69 l 259 406 l 29 406 l 29 565 l 259 565 l 259 883 q 266 918 259 902 q 285 946 273 934 q 313 965 297 959 q 347 972 329 972 l 826 972 q 979 942 905 972 q 1108 858 1052 912 q 1198 730 1164 805 q 1231 565 1231 655 l 1231 406 m 436 406 l 436 176 l 824 176 q 920 193 877 176 q 992 241 962 210 q 1039 314 1022 271 q 1055 406 1055 356 l 1055 565 q 1036 660 1055 617 q 985 733 1017 703 q 912 780 954 764 q 826 796 871 796 l 436 796 l 436 565 l 666 565 l 666 406 l 436 406 "},"I":{"x_min":103.765625,"x_max":280.109375,"ha":384,"o":"m 280 0 l 103 0 l 103 972 l 280 972 l 280 0 "},"G":{"x_min":89.53125,"x_max":1062.09375,"ha":1143,"o":"m 1062 88 q 1055 53 1062 69 q 1036 25 1048 37 q 1008 6 1024 13 q 973 0 992 0 l 337 0 q 284 5 312 0 q 228 23 256 11 q 176 55 201 35 q 131 102 151 74 q 101 165 112 129 q 89 247 89 202 l 89 725 q 95 777 89 749 q 113 833 101 805 q 145 885 125 860 q 192 930 164 910 q 255 961 219 949 q 337 972 291 972 l 1053 972 l 1053 796 l 337 796 q 284 777 302 796 q 265 723 265 759 l 265 247 q 284 194 265 213 q 337 176 303 176 l 885 176 l 885 397 l 416 397 l 416 575 l 973 575 q 1008 568 992 575 q 1036 548 1024 560 q 1055 520 1048 536 q 1062 486 1062 504 l 1062 88 "},"`":{"x_min":132.9375,"x_max":534.4375,"ha":774,"o":"m 207 1077 l 534 887 l 486 786 l 132 912 l 207 1077 "},"·":{"x_min":60.359375,"x_max":235.34375,"ha":296,"o":"m 235 487 q 228 453 235 469 q 209 425 221 437 q 181 406 197 413 q 147 400 165 400 q 113 406 129 400 q 85 425 97 413 q 67 453 73 437 q 60 487 60 469 q 67 521 60 505 q 85 549 73 537 q 113 568 97 560 q 147 575 129 575 q 181 568 165 575 q 209 549 197 560 q 228 521 221 537 q 235 487 235 505 "},"r":{"x_min":78.671875,"x_max":724.34375,"ha":758,"o":"m 724 556 l 327 556 q 273 538 291 556 q 255 486 255 520 l 255 0 l 78 0 l 78 486 q 90 567 78 531 q 121 631 101 603 q 165 677 140 658 q 218 709 190 697 q 273 727 245 721 q 326 733 301 733 l 724 733 l 724 556 "},"¿":{"x_min":54.9375,"x_max":867.453125,"ha":918,"o":"m 54 50 q 67 130 54 87 q 110 211 80 174 q 186 273 139 248 q 302 298 233 298 l 452 298 l 452 457 l 628 457 l 628 209 q 621 175 628 191 q 603 147 615 159 q 575 127 591 134 q 541 120 559 120 l 302 120 q 249 103 267 120 q 231 50 231 85 l 231 -29 q 302 -99 231 -99 l 867 -99 l 867 -276 l 302 -276 q 249 -270 277 -276 q 193 -252 221 -265 q 141 -221 166 -240 q 96 -173 115 -201 q 66 -110 78 -146 q 54 -29 54 -74 l 54 50 m 453 607 q 460 641 453 625 q 479 669 467 657 q 506 687 491 680 q 541 694 522 694 q 574 687 558 694 q 602 669 590 680 q 621 641 614 657 q 628 607 628 625 q 621 573 628 589 q 602 545 614 557 q 574 526 590 533 q 541 519 558 519 q 506 526 522 519 q 479 545 491 533 q 460 573 467 557 q 453 607 453 589 "},"ý":{"x_min":78.671875,"x_max":891.1875,"ha":977,"o":"m 891 -70 q 879 -152 891 -115 q 849 -216 868 -188 q 805 -262 830 -243 q 752 -294 779 -282 q 697 -312 725 -306 q 644 -318 669 -318 l 326 -318 l 326 -141 l 644 -141 q 697 -123 679 -141 q 714 -70 714 -105 l 714 733 l 891 733 l 891 -70 m 644 0 l 326 0 q 245 12 288 0 q 164 55 202 25 q 103 131 127 84 q 78 247 78 179 l 78 733 l 255 733 l 255 247 q 273 194 255 212 q 327 176 291 176 l 644 176 l 644 0 m 846 857 l 492 731 l 446 832 l 772 1022 l 846 857 "},"x":{"x_min":4.75,"x_max":960.359375,"ha":966,"o":"m 920 733 l 603 387 l 960 0 l 717 0 l 482 255 l 248 0 l 4 0 l 360 388 l 45 733 l 286 733 l 481 520 l 677 733 l 920 733 "},"è":{"x_min":67.828125,"x_max":871.515625,"ha":907,"o":"m 871 490 q 858 411 871 453 q 816 332 845 368 q 741 271 788 296 q 628 247 695 247 l 310 247 l 310 415 l 628 415 q 684 437 664 415 q 704 491 704 459 q 681 545 704 526 q 628 565 659 565 l 310 565 q 255 543 274 565 q 235 489 235 521 l 235 242 q 257 187 235 207 q 311 168 279 168 l 628 168 l 628 0 l 310 0 q 231 12 274 0 q 152 54 189 25 q 92 129 116 83 q 67 242 67 176 l 67 490 q 80 569 67 526 q 122 648 93 611 q 197 708 151 684 q 310 733 244 733 l 628 733 q 707 720 665 733 q 786 678 750 707 q 847 603 822 649 q 871 490 871 556 m 170 1118 l 497 928 l 449 827 l 95 953 l 170 1118 "},"º":{"x_min":80.03125,"x_max":767.75,"ha":848,"o":"m 767 560 q 747 464 767 503 q 695 400 726 424 q 627 364 663 375 q 559 354 590 354 l 286 354 q 219 364 255 354 q 152 400 183 375 q 100 464 121 424 q 80 560 80 503 l 80 765 q 100 861 80 822 q 152 925 121 901 q 219 961 183 950 q 286 972 255 972 l 559 972 q 656 951 616 972 q 720 900 695 931 q 756 832 745 868 q 767 765 767 796 l 767 560 m 626 765 q 622 787 626 775 q 612 808 619 798 q 592 824 604 818 q 559 830 579 830 l 286 830 q 264 828 276 830 q 243 817 252 825 q 227 797 233 810 q 221 765 221 784 l 221 560 q 239 512 221 530 q 286 494 257 494 l 559 494 q 582 497 571 494 q 604 507 594 500 q 619 528 613 515 q 626 560 626 541 l 626 765 "},"Ø":{"x_min":60.359375,"x_max":1137.375,"ha":1196,"o":"m 1005 874 q 1092 745 1060 820 q 1124 579 1124 670 l 1124 393 q 1093 229 1124 304 q 1009 101 1063 155 q 880 16 954 46 q 718 -13 806 -13 l 480 -13 q 401 -6 439 -13 q 327 12 362 0 l 261 -70 l 60 -70 l 192 96 q 104 227 135 151 q 73 393 73 302 l 73 579 q 104 742 73 668 q 189 871 134 817 q 318 955 243 925 q 480 986 392 986 l 718 986 q 797 979 759 986 q 870 959 835 972 l 935 1043 l 1137 1043 l 1005 874 m 948 579 q 934 665 948 626 q 895 734 920 705 l 446 164 q 462 162 455 162 q 480 162 470 162 l 717 162 q 811 179 769 162 q 884 226 853 196 q 931 298 914 256 q 948 393 948 341 l 948 579 m 249 393 q 263 305 249 344 q 302 237 277 267 l 750 808 q 735 809 742 809 q 718 809 727 809 l 480 809 q 386 793 428 809 q 313 746 343 776 q 266 673 282 716 q 249 579 249 631 l 249 393 "},"÷":{"x_min":67.828125,"x_max":704,"ha":771,"o":"m 473 725 q 466 690 473 706 q 447 662 459 674 q 420 644 436 651 q 385 637 404 637 q 351 644 367 637 q 323 662 335 651 q 305 690 311 674 q 298 725 298 706 q 305 759 298 743 q 323 787 311 775 q 351 805 335 798 q 385 812 367 812 q 420 805 404 812 q 447 787 436 798 q 466 759 459 775 q 473 725 473 743 m 704 406 l 67 406 l 67 565 l 704 565 l 704 406 m 473 247 q 466 213 473 229 q 447 185 459 197 q 420 166 436 173 q 385 160 404 160 q 351 166 367 160 q 323 185 335 173 q 305 213 311 197 q 298 247 298 229 q 305 281 298 265 q 323 309 311 297 q 351 328 335 321 q 385 335 367 335 q 420 328 404 335 q 447 309 436 321 q 466 281 459 297 q 473 247 473 265 "},"h":{"x_min":85.453125,"x_max":897.96875,"ha":977,"o":"m 897 0 l 721 0 l 721 486 q 703 538 721 520 q 651 556 686 556 l 333 556 l 333 733 l 651 733 q 703 727 676 733 q 759 709 731 721 q 811 677 786 697 q 855 631 836 658 q 886 567 874 603 q 897 486 897 531 l 897 0 m 261 0 l 85 0 l 85 1043 l 261 1043 l 261 0 "},".":{"x_min":54.9375,"x_max":229.921875,"ha":285,"o":"m 229 88 q 222 54 229 70 q 203 26 215 38 q 176 8 191 14 q 142 1 160 1 q 108 8 124 1 q 80 26 92 14 q 61 54 68 38 q 54 88 54 70 q 61 122 54 106 q 80 150 68 138 q 108 169 92 162 q 142 176 124 176 q 176 169 160 176 q 203 150 191 162 q 222 122 215 138 q 229 88 229 106 "},";":{"x_min":41.375,"x_max":271.96875,"ha":349,"o":"m 271 644 q 264 610 271 626 q 245 582 257 594 q 218 563 233 570 q 184 556 202 556 q 150 563 166 556 q 122 582 134 570 q 103 610 110 594 q 96 644 96 626 q 103 677 96 661 q 122 705 110 693 q 150 724 134 717 q 184 731 166 731 q 218 724 202 731 q 245 705 233 717 q 264 677 257 693 q 271 644 271 661 m 164 -124 l 41 -124 l 103 216 l 270 216 l 164 -124 "},"f":{"x_min":85.453125,"x_max":731.796875,"ha":764,"o":"m 731 556 l 333 556 l 333 733 l 731 733 l 731 556 m 731 874 l 334 874 q 280 856 298 874 q 261 804 261 838 l 261 0 l 85 0 l 85 804 q 96 885 85 849 q 127 949 108 921 q 172 995 147 976 q 224 1027 197 1015 q 280 1045 252 1039 q 333 1051 307 1051 l 731 1051 l 731 874 "},"“":{"x_min":44.078125,"x_max":522.90625,"ha":572,"o":"m 149 931 l 273 931 l 210 590 l 44 590 l 149 931 m 399 931 l 522 931 l 460 590 l 293 590 l 399 931 "},"A":{"x_min":84.09375,"x_max":1056.671875,"ha":1159,"o":"m 1056 0 l 880 0 l 880 238 l 260 238 l 260 0 l 84 0 l 84 486 q 120 682 84 592 q 222 836 157 771 q 376 936 287 900 q 570 972 465 972 l 967 972 q 1002 965 986 972 q 1030 946 1018 959 q 1049 918 1043 934 q 1056 883 1056 902 l 1056 0 m 260 415 l 880 415 l 880 796 l 570 796 q 536 793 562 796 q 475 781 510 791 q 403 752 441 772 q 333 698 365 733 q 281 612 301 663 q 260 486 260 560 l 260 415 "},"6":{"x_min":82.75,"x_max":975.96875,"ha":1034,"o":"m 259 575 l 728 575 q 808 561 765 575 q 889 519 851 548 q 951 442 926 489 q 975 326 975 394 l 975 247 q 970 194 975 222 q 951 139 964 166 q 920 86 939 111 q 873 42 900 61 q 809 11 845 23 q 728 0 773 0 l 408 0 q 339 7 376 0 q 266 31 302 14 q 197 73 230 48 q 138 135 163 99 q 98 219 113 171 q 82 326 82 266 l 82 645 q 98 752 82 705 q 138 836 113 800 q 197 898 163 872 q 266 941 230 924 q 339 965 302 957 q 408 972 376 972 l 851 972 l 851 796 l 408 796 q 347 781 375 793 q 300 751 320 770 q 269 705 280 732 q 259 645 259 678 l 259 575 m 259 397 l 259 326 q 270 264 259 291 q 303 217 282 236 q 350 186 323 197 q 410 176 378 176 l 728 176 q 780 196 762 176 q 798 247 798 217 l 798 326 q 780 379 798 360 q 727 397 763 397 l 259 397 "},"‘":{"x_min":44.078125,"x_max":273.328125,"ha":323,"o":"m 149 931 l 273 931 l 210 590 l 44 590 l 149 931 "},"O":{"x_min":71.890625,"x_max":1123.140625,"ha":1195,"o":"m 1123 393 q 1092 229 1123 304 q 1007 101 1062 155 q 879 16 953 46 q 717 -13 805 -13 l 478 -13 q 316 16 391 -13 q 187 101 242 46 q 102 229 133 155 q 71 393 71 304 l 71 579 q 102 742 71 667 q 187 871 133 817 q 316 955 242 925 q 478 986 391 986 l 717 986 q 879 955 805 986 q 1007 871 953 925 q 1092 742 1062 817 q 1123 579 1123 667 l 1123 393 m 946 579 q 930 673 946 631 q 883 746 913 716 q 810 793 853 776 q 717 809 768 809 l 478 809 q 384 793 427 809 q 311 746 342 776 q 264 673 281 716 q 248 579 248 631 l 248 393 q 264 298 248 341 q 311 226 281 256 q 384 179 342 196 q 478 162 427 162 l 716 162 q 810 179 767 162 q 883 226 852 196 q 930 298 913 256 q 946 393 946 341 l 946 579 "},"n":{"x_min":82.75,"x_max":895.25,"ha":967,"o":"m 895 0 l 718 0 l 718 406 q 707 468 718 441 q 674 516 695 496 q 627 546 654 535 q 567 556 599 556 l 259 556 l 259 0 l 82 0 l 82 645 q 89 679 82 663 q 108 707 96 695 q 137 726 120 719 q 171 733 153 733 l 569 733 q 639 725 602 733 q 712 701 676 718 q 781 659 748 685 q 839 597 814 634 q 880 514 865 561 q 895 406 895 466 l 895 0 "},"3":{"x_min":90.875,"x_max":904.078125,"ha":999,"o":"m 904 247 q 879 131 904 179 q 817 55 854 84 q 737 12 780 25 q 656 0 693 0 l 90 0 l 90 176 l 656 176 q 709 194 692 176 q 727 247 727 212 l 727 397 l 90 397 l 90 575 l 727 575 l 727 723 q 656 796 727 796 l 90 796 l 90 972 l 656 972 q 737 961 701 972 q 801 930 773 949 q 848 885 828 910 q 880 833 868 860 q 898 777 892 805 q 904 725 904 749 l 904 247 "},"9":{"x_min":57.65625,"x_max":950.875,"ha":1034,"o":"m 57 645 l 57 725 q 63 777 57 749 q 81 833 69 805 q 113 885 93 860 q 160 930 132 910 q 223 961 187 949 q 305 972 259 972 l 623 972 q 693 965 655 972 q 766 941 730 957 q 836 898 803 924 q 894 836 869 872 q 935 752 920 800 q 950 645 950 705 l 950 326 q 935 219 950 266 q 894 135 920 171 q 836 73 869 99 q 766 31 803 48 q 693 7 730 14 q 623 0 655 0 l 183 0 l 183 176 l 623 176 q 683 189 656 179 q 731 219 711 200 q 762 264 751 238 q 773 326 773 291 l 773 397 l 305 397 q 252 403 280 397 q 197 421 224 408 q 144 453 169 434 q 100 500 119 472 q 69 564 80 528 q 57 645 57 600 m 773 645 q 761 708 773 680 q 730 755 750 735 q 682 785 710 775 q 623 796 655 796 l 305 796 q 253 775 272 796 q 233 725 233 755 l 233 645 q 252 593 233 611 q 306 575 270 575 l 773 575 l 773 645 "},"l":{"x_min":78.671875,"x_max":404.90625,"ha":435,"o":"m 404 0 l 326 0 q 245 12 288 0 q 164 55 202 25 q 103 131 127 84 q 78 247 78 179 l 78 1043 l 255 1043 l 255 247 q 275 195 255 215 q 326 176 295 176 l 404 176 l 404 0 "},"¤":{"x_min":48.15625,"x_max":560.890625,"ha":609,"o":"m 228 489 q 249 436 228 457 q 302 415 270 415 q 331 420 318 415 q 355 436 345 426 q 371 459 365 446 q 377 489 377 473 q 371 518 377 504 q 355 541 365 531 q 331 557 345 552 q 302 563 318 563 q 273 557 286 563 q 249 541 259 552 q 234 518 240 531 q 228 489 228 504 m 560 638 l 484 563 q 495 527 491 545 q 499 489 499 508 q 494 447 499 467 q 481 408 489 427 l 560 330 l 457 233 l 381 309 q 302 293 345 293 q 262 296 281 293 q 225 307 243 299 l 152 233 l 50 335 l 124 406 q 110 446 115 425 q 106 489 106 467 q 110 530 106 510 q 123 569 114 550 l 48 645 l 152 739 l 221 668 q 260 681 240 676 q 302 686 280 686 q 345 681 324 686 q 385 666 366 676 l 457 739 l 560 638 "},"∂":{"x_min":61.71875,"x_max":874.90625,"ha":964,"o":"m 874 247 q 850 131 874 179 q 788 55 825 84 q 708 12 751 25 q 627 0 664 0 l 309 0 q 227 11 263 0 q 164 42 191 23 q 117 86 137 61 q 85 139 97 111 q 67 194 73 166 q 61 247 61 223 l 61 486 q 73 567 61 531 q 104 631 84 603 q 148 677 123 658 q 201 709 173 697 q 256 727 228 721 q 309 733 284 733 l 627 733 l 627 556 l 310 556 q 256 538 274 556 q 238 486 238 520 l 238 248 q 309 176 238 176 l 627 176 q 680 194 663 176 q 697 247 697 212 l 697 804 q 687 865 697 838 q 658 912 677 893 q 611 943 639 932 q 548 954 583 954 l 459 954 l 459 1131 l 548 1131 q 655 1116 608 1131 q 739 1076 703 1101 q 801 1017 775 1050 q 843 947 827 984 q 867 874 859 911 q 874 804 874 836 l 874 247 "},"4":{"x_min":73.25,"x_max":966.46875,"ha":1074,"o":"m 966 0 l 788 0 l 788 397 l 162 397 q 126 404 143 397 q 98 423 110 411 q 80 451 86 435 q 73 486 73 467 l 73 972 l 249 972 l 249 575 l 788 575 l 788 972 l 966 972 l 966 0 "},"p":{"x_min":78.671875,"x_max":891.1875,"ha":959,"o":"m 891 247 q 879 165 891 202 q 849 102 868 129 q 805 55 830 74 q 752 23 779 35 q 697 5 725 11 q 644 0 669 0 l 326 0 l 326 176 l 644 176 q 697 194 679 176 q 714 247 714 212 l 714 484 q 696 539 714 521 q 644 556 678 556 l 327 556 q 273 538 291 556 q 255 486 255 520 l 255 -229 l 78 -229 l 78 486 q 90 567 78 531 q 121 631 101 603 q 165 677 140 658 q 218 709 190 697 q 273 727 245 721 q 326 733 301 733 l 644 733 q 725 721 689 733 q 789 691 761 710 q 835 647 816 672 q 867 594 855 621 q 885 539 879 567 q 891 486 891 511 l 891 247 "},"‡":{"x_min":66.46875,"x_max":543.9375,"ha":609,"o":"m 392 883 l 543 883 l 543 725 l 392 725 l 392 247 l 543 247 l 543 88 l 392 88 l 392 -160 l 216 -160 l 216 88 l 66 88 l 66 247 l 216 247 l 216 725 l 66 725 l 66 883 l 216 883 l 216 1131 l 392 1131 l 392 883 "},"à":{"x_min":35.953125,"x_max":839.640625,"ha":907,"o":"m 839 242 q 826 163 839 206 q 785 85 813 121 q 709 24 756 48 q 596 0 663 0 l 278 0 q 199 12 242 0 q 121 54 157 25 q 60 129 84 83 q 35 242 35 176 q 48 322 35 279 q 90 401 61 364 q 165 461 119 437 q 278 486 212 486 l 596 486 l 596 318 l 278 318 q 223 296 242 318 q 203 241 203 274 q 226 187 203 206 q 280 168 248 168 l 596 168 q 652 189 632 168 q 672 244 672 211 l 672 490 q 650 545 672 524 q 596 565 629 565 l 209 565 l 209 733 l 596 733 q 675 720 633 733 q 754 678 718 707 q 815 603 790 649 q 839 490 839 556 l 839 242 m 149 1118 l 476 928 l 428 827 l 74 953 l 149 1118 "},"Ü":{"x_min":82.75,"x_max":1055.3125,"ha":1158,"o":"m 1055 88 q 1048 53 1055 69 q 1029 25 1041 37 q 1001 6 1017 13 q 966 0 984 0 l 569 0 q 455 12 512 0 q 343 49 397 24 q 242 114 289 75 q 159 207 194 153 q 103 331 123 261 q 82 486 82 400 l 82 972 l 259 972 l 259 486 q 279 360 259 411 q 332 274 300 308 q 402 219 364 239 q 474 190 440 200 q 534 178 508 181 q 569 176 560 176 l 878 176 l 878 972 l 1055 972 l 1055 88 m 499 1123 q 492 1089 499 1105 q 473 1061 485 1073 q 445 1043 461 1049 q 411 1036 429 1036 q 377 1043 393 1036 q 349 1061 361 1049 q 331 1089 337 1073 q 324 1123 324 1105 q 331 1157 324 1141 q 349 1185 337 1173 q 377 1204 361 1197 q 411 1211 393 1211 q 445 1204 429 1211 q 473 1185 461 1197 q 492 1157 485 1173 q 499 1123 499 1141 m 813 1123 q 806 1089 813 1105 q 787 1061 799 1073 q 759 1043 775 1049 q 725 1036 743 1036 q 691 1043 707 1036 q 663 1061 675 1049 q 645 1089 652 1073 q 638 1123 638 1105 q 645 1157 638 1141 q 663 1185 652 1173 q 691 1204 675 1197 q 725 1211 707 1211 q 759 1204 743 1211 q 787 1185 775 1197 q 806 1157 799 1173 q 813 1123 813 1141 "},"ó":{"x_min":67.828125,"x_max":880.328125,"ha":947,"o":"m 880 247 q 868 165 880 202 q 838 102 857 129 q 794 55 819 74 q 741 23 769 35 q 686 5 714 11 q 632 0 657 0 l 314 0 q 234 12 278 0 q 154 55 191 25 q 92 131 117 84 q 67 247 67 179 l 67 486 q 92 601 67 554 q 154 677 117 648 q 234 720 191 707 q 314 733 278 733 l 632 733 q 748 708 700 733 q 824 647 795 684 q 867 567 853 610 q 880 486 880 523 l 880 247 m 704 484 q 685 539 704 521 q 632 556 667 556 l 316 556 q 262 538 280 556 q 244 486 244 520 l 244 247 q 262 194 244 212 q 316 176 280 176 l 632 176 q 686 194 668 176 q 704 247 704 212 l 704 484 m 833 953 l 479 827 l 433 928 l 759 1118 l 833 953 "}}}
